<svg width="651" height="585" viewBox="0 0 651 585" fill="none" xmlns="http://www.w3.org/2000/svg">
<path fill-rule="evenodd" clip-rule="evenodd" d="M46.5625 379.118V406.42C46.5625 407.768 47.6652 408.85 48.9925 408.85C50.3402 408.85 51.4225 407.768 51.4225 406.42V379.118C51.4225 377.771 50.3402 376.688 48.9925 376.688C47.6652 376.688 46.5625 377.771 46.5625 379.118Z" fill="#2F2D48"/>
<path fill-rule="evenodd" clip-rule="evenodd" d="M35.3519 395.21H62.6534C64.0011 395.21 65.0834 394.127 65.0834 392.78C65.0834 391.432 64.0011 390.35 62.6534 390.35H35.3519C34.0041 390.35 32.9219 391.432 32.9219 392.78C32.9219 394.127 34.0041 395.21 35.3519 395.21Z" fill="#2F2D48"/>
<path fill-rule="evenodd" clip-rule="evenodd" d="M606.643 127.606V154.907C606.643 156.255 607.745 157.337 609.073 157.337C610.42 157.337 611.523 156.255 611.523 154.907V127.606C611.523 126.258 610.42 125.176 609.073 125.176C607.725 125.176 606.643 126.258 606.643 127.606Z" fill="#2F2D48"/>
<path fill-rule="evenodd" clip-rule="evenodd" d="M595.41 143.697H622.712C624.06 143.697 625.142 142.594 625.142 141.267C625.142 139.919 624.039 138.837 622.712 138.837H595.41C594.063 138.837 592.98 139.919 592.98 141.267C592.98 142.615 594.063 143.697 595.41 143.697Z" fill="#2F2D48"/>
<path fill-rule="evenodd" clip-rule="evenodd" d="M632.33 340.851V368.153C632.33 369.5 633.433 370.583 634.76 370.583C636.108 370.583 637.21 369.5 637.21 368.153V340.851C637.21 339.503 636.108 338.421 634.76 338.421C633.412 338.401 632.33 339.503 632.33 340.851Z" fill="#2F2D48"/>
<path fill-rule="evenodd" clip-rule="evenodd" d="M621.12 356.942H648.421C649.769 356.942 650.851 355.839 650.851 354.512C650.851 353.164 649.749 352.082 648.421 352.082H621.12C619.772 352.082 618.69 353.164 618.69 354.512C618.669 355.839 619.772 356.942 621.12 356.942Z" fill="#2F2D48"/>
<path fill-rule="evenodd" clip-rule="evenodd" d="M151.643 309.752V337.054C151.643 338.402 152.725 339.484 154.073 339.484C155.42 339.484 156.503 338.402 156.503 337.054V309.752C156.503 308.405 155.42 307.322 154.073 307.322C152.725 307.322 151.643 308.405 151.643 309.752Z" fill="white"/>
<path fill-rule="evenodd" clip-rule="evenodd" d="M140.432 325.842H167.734C169.081 325.842 170.164 324.76 170.164 323.412C170.164 322.065 169.081 320.962 167.734 320.962H140.432C139.084 320.962 138.002 322.044 138.002 323.412C137.982 324.76 139.084 325.842 140.432 325.842Z" fill="white"/>
<path fill-rule="evenodd" clip-rule="evenodd" d="M346.308 563.634C492.27 563.634 611.318 444.585 611.318 298.623C611.318 152.661 492.27 33.6123 346.308 33.6123C200.345 33.6123 81.2969 152.661 81.2969 298.623C81.2969 444.585 200.345 563.634 346.308 563.634Z" fill="#3C3957" fill-opacity="0.21"/>
<path fill-rule="evenodd" clip-rule="evenodd" d="M49.0117 48.0286V75.3302C49.0117 76.6779 50.1144 77.7602 51.4417 77.7602C52.7894 77.7602 53.8717 76.6779 53.8717 75.3302V48.0286C53.8717 46.6809 52.7894 45.5986 51.4417 45.5986C50.094 45.5986 49.0117 46.6809 49.0117 48.0286Z" fill="#2F2D48"/>
<path fill-rule="evenodd" clip-rule="evenodd" d="M37.7815 64.1187H65.0831C66.4308 64.1187 67.5131 63.016 67.5131 61.6887C67.5131 60.341 66.4308 59.2588 65.0831 59.2588H37.7815C36.4338 59.2588 35.3516 60.341 35.3516 61.6887C35.3516 63.0365 36.4338 64.1187 37.7815 64.1187Z" fill="#2F2D48"/>
<path fill-rule="evenodd" clip-rule="evenodd" d="M336.976 551.709C482.938 551.709 601.986 432.66 601.986 286.698C601.986 140.736 482.938 21.6875 336.976 21.6875C191.013 21.6875 71.9648 140.736 71.9648 286.698C71.9648 432.66 191.013 551.709 336.976 551.709Z" fill="#3C3957"/>
<path fill-rule="evenodd" clip-rule="evenodd" d="M336.976 21.707C476.036 21.707 590.082 128.83 601.088 265.052C590.061 401.274 476.036 508.397 336.976 508.397C197.915 508.397 83.8697 401.274 72.8633 265.052C83.8697 128.83 197.915 21.707 336.976 21.707Z" fill="#2F2D48"/>
<path fill-rule="evenodd" clip-rule="evenodd" d="M204.287 27.9763C203.449 26.5469 202.306 25.4237 200.897 24.5865C200.611 24.464 200.325 24.3415 200.039 24.219C198.487 23.3205 196.833 22.8713 195.036 22.8713C193.668 22.8304 192.402 23.0959 191.218 23.7289C188.563 24.852 186.092 27.1799 185.48 30.1408C185.051 32.244 185.051 33.3059 185.48 35.4091C186.092 38.37 188.543 40.6979 191.218 41.821C192.402 42.4336 193.668 42.7195 195.036 42.6787C196.833 42.6787 198.487 42.2295 200.039 41.331C200.325 41.2084 200.611 41.0859 200.897 40.9634C202.326 40.1262 203.449 38.9826 204.287 37.5737C205.144 36.1034 205.573 34.5107 205.573 32.7954C205.573 31.0597 205.144 29.4669 204.287 27.9763Z" fill="#2F2D48"/>
<path fill-rule="evenodd" clip-rule="evenodd" d="M506.911 63.2415C515.406 69.4083 540.155 99.2624 547.608 90.7677C554.715 82.6813 527.576 61.2199 516.182 54.0116C499.642 43.5566 464.132 26.1588 461.62 31.3046C459.496 35.6132 493.72 53.6645 506.911 63.2415Z" fill="#2F2D48"/>
<path fill-rule="evenodd" clip-rule="evenodd" d="M562.412 117.844C573.112 122.337 580.116 105.694 569.395 101.202C558.675 96.73 551.691 113.352 562.412 117.844Z" fill="#2F2D48"/>
<path fill-rule="evenodd" clip-rule="evenodd" d="M152.889 508.52C145.089 501.475 123.668 469.171 115.357 476.808C107.434 484.098 132.122 508.316 142.7 516.708C158.035 528.879 191.483 549.932 194.546 545.092C197.078 541.028 164.957 519.424 152.889 508.52Z" fill="#2F2D48"/>
<path fill-rule="evenodd" clip-rule="evenodd" d="M103.495 448.301C93.3259 442.706 84.6066 458.49 94.7961 464.106C104.965 469.701 113.685 453.916 103.495 448.301Z" fill="#2F2D48"/>
<path fill-rule="evenodd" clip-rule="evenodd" d="M556.777 492.879C555.94 491.449 554.796 490.326 553.387 489.489C553.101 489.366 552.815 489.244 552.53 489.121C550.978 488.223 549.324 487.774 547.527 487.774C546.159 487.712 544.892 487.998 543.708 488.631C541.053 489.754 538.583 492.082 537.97 495.043C537.541 497.147 537.541 498.208 537.97 500.312C538.583 503.273 541.033 505.6 543.708 506.724C544.892 507.336 546.159 507.622 547.527 507.581C549.324 507.581 550.978 507.132 552.53 506.233C552.815 506.111 553.101 505.988 553.387 505.866C554.817 505.029 555.94 503.885 556.777 502.476C557.635 501.006 558.063 499.413 558.063 497.698C558.063 495.962 557.635 494.369 556.777 492.879Z" fill="#2F2D48"/>
<path fill-rule="evenodd" clip-rule="evenodd" d="M531.477 521.017C530.333 519.097 528.802 517.566 526.882 516.422C526.494 516.259 526.106 516.096 525.718 515.912C523.636 514.707 521.389 514.094 518.98 514.094C517.142 514.033 515.427 514.401 513.834 515.238C510.24 516.749 506.912 519.894 506.095 523.896C505.523 526.734 505.523 528.184 506.095 531.002C506.912 535.004 510.24 538.149 513.834 539.66C515.427 540.497 517.142 540.885 518.98 540.804C521.389 540.804 523.636 540.191 525.718 538.986C526.106 538.823 526.494 538.66 526.882 538.476C528.802 537.332 530.333 535.801 531.477 533.881C532.62 531.88 533.213 529.736 533.213 527.429C533.233 525.162 532.641 523.018 531.477 521.017Z" fill="#2F2D48"/>
<path fill-rule="evenodd" clip-rule="evenodd" d="M227.176 13.0088C220.009 13.0088 219.988 24.1582 227.176 24.1582C234.344 24.1582 234.364 13.0088 227.176 13.0088Z" fill="#2F2D48"/>
<path fill-rule="evenodd" clip-rule="evenodd" d="M51.934 312.509C44.7666 312.509 44.7462 323.658 51.934 323.658C59.1014 323.658 59.1218 312.509 51.934 312.509Z" fill="#2F2D48"/>
<path fill-rule="evenodd" clip-rule="evenodd" d="M626.247 298.623C619.079 298.623 619.059 309.772 626.247 309.772C633.434 309.772 633.434 298.623 626.247 298.623Z" fill="#2F2D48"/>
<path fill-rule="evenodd" clip-rule="evenodd" d="M369.465 567.575C362.298 567.575 362.277 578.724 369.465 578.724C376.633 578.724 376.653 567.575 369.465 567.575Z" fill="#2F2D48"/>
<path fill-rule="evenodd" clip-rule="evenodd" d="M285.578 571.291H282.678C282.678 575.294 279.431 578.541 275.409 578.561C271.406 578.561 268.16 575.314 268.139 571.291C268.16 567.289 271.386 564.042 275.409 564.022C279.411 564.022 282.658 567.269 282.678 571.291H285.578H288.477C288.477 564.063 282.617 558.223 275.409 558.223C268.18 558.223 262.34 564.063 262.34 571.291C262.34 578.52 268.2 584.36 275.409 584.36C282.617 584.36 288.477 578.52 288.477 571.291H285.578Z" fill="#2F2D48"/>
<path fill-rule="evenodd" clip-rule="evenodd" d="M604.213 439.154H601.313C601.313 443.156 598.066 446.403 594.043 446.423C590.041 446.423 586.794 443.177 586.774 439.154C586.774 435.151 590.021 431.905 594.043 431.884C598.046 431.884 601.293 435.131 601.313 439.154H604.213H607.112C607.112 431.925 601.252 426.085 594.043 426.085C586.815 426.085 580.975 431.946 580.975 439.154C580.975 446.382 586.835 452.223 594.043 452.223C601.272 452.223 607.112 446.382 607.112 439.154H604.213Z" fill="#2F2D48"/>
<path fill-rule="evenodd" clip-rule="evenodd" d="M405.628 561.081C404.791 559.651 403.648 558.528 402.239 557.691C401.953 557.568 401.667 557.446 401.381 557.323C399.829 556.425 398.175 555.976 396.378 555.976C395.01 555.935 393.744 556.2 392.56 556.833C389.885 557.956 387.434 560.284 386.822 563.245C386.393 565.348 386.393 566.41 386.822 568.514C387.434 571.474 389.885 573.802 392.56 574.925C393.744 575.538 395.01 575.824 396.378 575.783C398.175 575.783 399.829 575.334 401.381 574.435C401.667 574.313 401.953 574.19 402.239 574.068C403.668 573.231 404.791 572.087 405.628 570.678C406.486 569.208 406.915 567.615 406.915 565.9C406.915 564.164 406.486 562.571 405.628 561.081Z" fill="#2F2D48"/>
<path fill-rule="evenodd" clip-rule="evenodd" d="M5.51801 227.541C-1.64944 227.541 -1.66986 238.69 5.51801 238.69C12.7059 238.69 12.7059 227.541 5.51801 227.541Z" fill="#2F2D48"/>
<path fill-rule="evenodd" clip-rule="evenodd" d="M342.06 0.429688C336.384 0.429688 336.384 9.23074 342.06 9.23074C347.717 9.23074 347.737 0.429688 342.06 0.429688Z" fill="#2F2D48"/>
<path fill-rule="evenodd" clip-rule="evenodd" d="M449 87.582C443.344 87.582 443.323 96.3831 449 96.3831C454.677 96.3831 454.677 87.582 449 87.582Z" fill="white"/>
<path fill-rule="evenodd" clip-rule="evenodd" d="M364.869 53.7871C354.843 53.7871 354.822 69.3676 364.869 69.3676C374.895 69.3676 374.916 53.7871 364.869 53.7871Z" fill="white"/>
<path fill-rule="evenodd" clip-rule="evenodd" d="M531.455 360.435C521.429 360.435 521.408 376.015 531.455 376.015C541.481 376.015 541.502 360.435 531.455 360.435Z" fill="white"/>
<path fill-rule="evenodd" clip-rule="evenodd" d="M190.135 434.661C184.478 434.661 184.458 443.462 190.135 443.462C195.791 443.462 195.811 434.661 190.135 434.661Z" fill="white"/>
<path fill-rule="evenodd" clip-rule="evenodd" d="M359.111 417.263C353.455 417.263 353.434 426.064 359.111 426.064C364.768 426.064 364.788 417.263 359.111 417.263Z" fill="white"/>
<path fill-rule="evenodd" clip-rule="evenodd" d="M257.236 64.9775C251.58 64.9775 251.559 73.7786 257.236 73.7786C262.893 73.7786 262.913 64.9775 257.236 64.9775Z" fill="white"/>
<path fill-rule="evenodd" clip-rule="evenodd" d="M142.106 108.86C152.521 103.388 156.543 90.5028 151.071 80.0681C145.598 69.6539 132.713 65.6312 122.279 71.1242L18.4633 125.666C17.769 126.034 17.0747 126.422 16.4213 126.871C16.2988 126.952 16.1762 127.034 16.0537 127.116L15.972 127.177C15.8699 127.259 15.7678 127.32 15.6862 127.381L15.5841 127.463C15.5024 127.524 15.4207 127.585 15.3595 127.647L15.2369 127.728C15.1552 127.79 15.0736 127.851 14.9715 127.933L14.849 128.035L14.6243 128.218L14.5018 128.321C14.4201 128.382 14.3589 128.443 14.2772 128.525L14.1751 128.627C14.0934 128.688 14.0322 128.77 13.9505 128.831L13.8484 128.933C13.7871 128.994 13.7054 129.056 13.6442 129.137L13.5625 129.219C13.4808 129.301 13.3991 129.403 13.297 129.485L13.2562 129.525C13.1541 129.627 13.052 129.73 12.9703 129.832C10.9487 132.057 9.3764 134.753 8.43708 137.795C7.47734 140.858 7.25271 143.962 7.66111 146.944V146.964C7.68153 147.107 7.70194 147.25 7.72236 147.393L7.74279 147.454C7.76321 147.577 7.78363 147.699 7.80405 147.822L7.82447 147.924V147.944L7.88573 148.23L7.90615 148.373C7.92657 148.455 7.94699 148.557 7.96741 148.638V148.659L8.00824 148.802L8.06952 149.067L8.11035 149.21V149.231L8.19203 149.496L8.23286 149.639C8.25328 149.741 8.29413 149.843 8.33497 149.945L8.3758 150.088C8.39622 150.17 8.43707 150.252 8.45749 150.333V150.354V150.374L8.49833 150.497C8.53917 150.619 8.58001 150.721 8.62085 150.844L8.66168 150.946C8.72294 151.089 8.76379 151.232 8.82505 151.354V151.375C9.13135 152.13 9.45807 152.845 9.84605 153.56L64.3675 257.334C69.84 267.748 82.725 271.771 93.1392 266.298C103.553 260.826 107.576 247.941 102.104 237.506L71.4124 179.085L168.162 209.184C163.119 241.08 168.897 272.853 183.232 300.134C200.691 333.358 230.811 359.924 269.486 371.952C308.141 383.979 348.022 379.201 381.245 361.742C398.296 352.777 413.611 340.464 426.087 325.394L431.764 324.659L435.031 313.387C434.909 313.122 434.786 312.856 434.664 312.591C428.089 298.889 418.103 287.413 405.749 279.122C395.784 298.766 380.081 314.204 361.417 324.026C337.853 336.4 309.571 339.79 282.147 331.254C254.723 322.719 233.363 303.892 220.968 280.327C208.594 256.762 205.204 228.481 213.74 201.057C222.275 173.633 241.103 152.273 264.667 139.878C288.232 127.504 316.514 124.114 343.938 132.65C371.362 141.185 392.721 160.012 405.116 183.577C406.28 185.803 407.383 188.09 408.383 190.397C410.18 190.949 411.957 191.561 413.754 192.174C421.881 195.033 429.743 198.484 437.257 202.527L455.615 227.623C460.413 211.471 456.922 199.117 451.51 183.638C449.121 176.798 446.221 170.161 442.873 163.749C425.414 130.526 395.294 103.96 356.639 91.9322C317.984 79.9048 278.104 84.6831 244.88 102.142C217.599 116.477 194.81 139.347 180.864 168.487L84.1136 138.388L142.106 108.86Z" fill="#FF4D6A"/>
<path fill-rule="evenodd" clip-rule="evenodd" d="M138.84 120.132C149.254 114.659 153.277 101.774 147.804 91.3397C142.332 80.9255 129.447 76.9028 119.012 82.3753L15.1966 136.917C14.5023 137.285 13.808 137.673 13.1546 138.122H13.1342C13.0117 138.204 12.8891 138.285 12.7666 138.367L12.6849 138.428C12.5828 138.51 12.4807 138.571 12.3991 138.632L12.297 138.714C12.2153 138.775 12.1336 138.837 12.0723 138.898L11.9498 138.98C11.8681 139.041 11.7865 139.102 11.6844 139.184L11.5618 139.286L11.3372 139.47L11.2147 139.572C11.133 139.633 11.0718 139.694 10.9901 139.776L10.888 139.878C10.8063 139.939 10.745 140.021 10.6634 140.082L10.5613 140.184C10.5 140.246 10.4183 140.307 10.3571 140.389L10.2754 140.47C10.1937 140.552 10.112 140.654 10.0099 140.736L9.96909 140.777C9.86699 140.879 9.76488 140.981 9.6832 141.083C7.66162 143.309 6.08929 146.004 5.14997 149.047C4.19023 152.11 3.9656 155.213 4.374 158.195V158.215C4.39442 158.358 4.41484 158.501 4.43526 158.644V158.705C4.45568 158.828 4.47611 158.95 4.49653 159.073L4.51694 159.175V159.195L4.57819 159.481L4.59862 159.624C4.61904 159.706 4.63946 159.808 4.65988 159.89V159.91L4.70073 160.053L4.76198 160.318L4.80282 160.461V160.482L4.8845 160.747L4.92535 160.89C4.94577 160.992 4.9866 161.094 5.02744 161.197L5.06829 161.339C5.08871 161.421 5.12955 161.503 5.14997 161.585V161.605V161.625L5.1908 161.748C5.23164 161.87 5.27248 161.972 5.31332 162.095L5.35417 162.177C5.41543 162.32 5.45627 162.463 5.51753 162.606V162.626C5.82383 163.381 6.15055 164.096 6.53853 164.811L61.0599 268.585C66.5325 278.999 79.4175 283.022 89.8317 277.55C100.246 272.077 104.269 259.192 98.7961 248.757L68.1048 190.336L164.855 220.435C159.811 252.331 165.59 284.105 179.925 311.386C197.384 344.609 227.503 371.175 266.179 383.203C304.834 395.23 344.714 390.452 377.938 372.993C399.338 361.762 417.961 345.262 431.724 324.618C431.601 324.352 431.479 324.087 431.356 323.821C424.781 310.12 414.796 298.644 402.442 290.353C392.477 309.997 376.774 325.435 358.11 335.257C334.545 347.631 306.263 351.021 278.839 342.485C251.415 333.95 230.056 315.122 217.661 291.558C205.286 267.993 201.897 239.711 210.432 212.287C218.968 184.863 237.795 163.504 261.36 151.109C284.924 138.735 313.206 135.345 340.63 143.88C368.054 152.416 389.414 171.243 401.809 194.808C402.972 197.034 404.075 199.321 405.076 201.628C406.873 202.179 408.649 202.792 410.446 203.405C426.762 209.143 441.954 217.311 455.574 227.582C453.573 209.081 448.08 191.234 439.545 174.98C422.086 141.757 391.966 115.19 353.311 103.163C314.656 91.1355 274.776 95.9138 241.552 113.373C214.271 127.708 191.482 150.578 177.536 179.717L80.7857 149.618L138.84 120.132Z" fill="#E4062B"/>
<path fill-rule="evenodd" clip-rule="evenodd" d="M148.826 93.7088C148.519 92.8716 148.131 92.0344 147.723 91.2176C142.25 80.8034 129.365 76.7806 118.931 82.2736L15.1155 136.815C14.4212 137.183 13.7269 137.571 13.0735 138.02C12.9509 138.102 12.8284 138.184 12.7059 138.265L12.6242 138.327C12.5221 138.408 12.42 138.469 12.3179 138.531L12.2158 138.612C12.1341 138.674 12.0525 138.735 11.9912 138.796L11.8687 138.878C11.787 138.939 11.7053 139.021 11.6032 139.082L11.4807 139.184L11.0315 139.552L10.909 139.654C10.8273 139.715 10.766 139.797 10.6843 139.858L10.5822 139.96C10.5005 140.021 10.4393 140.103 10.3576 140.164L10.2555 140.266C10.1943 140.328 10.1126 140.389 10.0513 140.471L9.96963 140.552C9.88795 140.634 9.78584 140.736 9.70416 140.818L9.66333 140.859C9.56123 140.961 9.47955 141.063 9.37745 141.165C7.35587 143.391 5.78352 146.086 4.82378 149.129C3.86404 152.192 3.63943 155.296 4.04783 158.277V158.297C4.06825 158.44 4.08867 158.583 4.10909 158.726L4.12951 158.787C4.14993 158.91 4.17035 159.032 4.19077 159.155L4.21119 159.257V159.277L4.27245 159.563L4.29286 159.706C4.31328 159.788 4.33371 159.87 4.35413 159.972V159.992L4.39497 160.135L4.45622 160.401L4.49707 160.543L4.57874 160.809L4.61959 160.952C4.64001 161.054 4.68085 161.156 4.72169 161.258L4.76253 161.401C4.78295 161.483 4.82379 161.564 4.84421 161.646V161.667V161.687L4.88504 161.81C4.92588 161.932 4.96673 162.034 5.00757 162.157L5.04841 162.238C5.10967 162.381 5.15051 162.524 5.21177 162.667V162.688C5.51807 163.443 5.84479 164.158 6.23277 164.873L6.7841 165.934L6.70242 165.73L6.66159 165.648C6.62075 165.526 6.57991 165.424 6.53907 165.301L6.49822 165.179V165.158C6.4778 165.077 6.43696 164.995 6.41654 164.913L6.37571 164.77C6.33487 164.668 6.31444 164.566 6.2736 164.464L6.23277 164.321L6.15109 164.056L6.11024 163.913L6.04898 163.647L6.00815 163.504V163.484C5.98773 163.402 5.96731 163.3 5.94689 163.218L5.92647 163.076L5.86521 162.79V162.769L5.84478 162.667C5.82436 162.545 5.80395 162.422 5.78353 162.3V162.238C5.76311 162.095 5.74269 161.952 5.72227 161.81V161.789C5.33429 158.808 5.5589 155.704 6.49822 152.641C7.45796 149.578 9.03031 146.903 11.0519 144.677C11.154 144.575 11.2357 144.473 11.3378 144.371L11.3786 144.33C11.4603 144.248 11.5624 144.146 11.6441 144.065L11.7257 143.983C11.787 143.922 11.8687 143.84 11.93 143.779L12.032 143.677C12.1137 143.615 12.175 143.534 12.2567 143.472L12.3588 143.37C12.4404 143.309 12.5017 143.227 12.5834 143.166L12.7059 143.064L12.9305 142.88L13.053 142.778C13.1347 142.717 13.2164 142.635 13.2981 142.574L13.4206 142.492C13.5023 142.431 13.584 142.37 13.6452 142.308L13.7473 142.227C13.8494 142.145 13.9515 142.084 14.0536 142.023L14.1353 141.961C14.2578 141.88 14.3803 141.798 14.5029 141.716H14.5233C15.1767 141.287 15.871 140.879 16.5653 140.511L120.381 85.9696C130.693 80.4562 143.067 84.0297 148.826 93.7088ZM164.018 224.356C159.914 254.108 165.162 283.635 177.945 309.385C165.59 282.737 161.057 251.208 166.652 222.294L164.508 221.661L164.018 224.356ZM431.275 325.741L431.316 325.7C431.193 325.435 431.071 325.169 430.948 324.904C424.373 311.202 414.388 299.726 402.034 291.436C392.069 311.08 376.366 326.517 357.702 336.339C334.137 348.714 305.855 352.103 278.431 343.568C251.007 335.032 229.648 316.205 217.253 292.64C216.967 292.089 216.681 291.538 216.416 291.007C217.212 292.743 218.049 294.458 218.948 296.153C231.322 319.717 252.702 338.545 280.126 347.08C307.55 355.616 335.832 352.226 359.397 339.852C378.061 330.05 393.764 314.592 403.728 294.948C415.225 302.687 424.7 313.203 431.275 325.741ZM403.892 200.995C404.157 201.567 404.402 202.119 404.647 202.69L404.729 202.711C404.464 202.159 404.178 201.567 403.892 200.995ZM442.322 182.556C441.832 181.556 441.322 180.555 440.791 179.554C423.332 146.331 393.212 119.765 354.537 107.737C315.882 95.71 276.001 100.488 242.778 117.947C215.497 132.282 192.708 155.153 178.761 184.292L76.8451 152.702L80.3982 150.844L177.087 180.8C191.034 151.661 213.822 128.79 241.104 114.456C274.327 96.9964 314.207 92.2182 352.862 104.246C391.517 116.273 421.657 142.839 439.116 176.063C440.239 178.186 441.301 180.371 442.322 182.556Z" fill="white"/>
<path fill-rule="evenodd" clip-rule="evenodd" d="M226.074 413.731C222.704 406.707 219.948 399.56 217.763 392.331L214.373 389.472L209.166 377.465L212.433 366.193C227.524 377.547 244.595 386.348 263.034 392.106C263.504 393.168 263.973 394.21 264.484 395.271C276.92 421.164 298.667 439.562 323.783 448.384C348.9 457.205 377.366 456.429 403.258 444.014C429.151 431.578 447.549 409.831 456.371 384.714C465.192 359.598 464.436 331.132 452.001 305.24C439.565 279.347 417.818 260.949 392.701 252.127C367.584 243.306 339.119 244.061 313.226 256.497C291.908 266.728 275.654 283.309 265.668 302.871C256.336 296.582 248.332 288.475 242.124 278.898L233.16 279.878L236.447 268.606C250.537 247.533 270.283 229.849 294.787 218.067C331.298 200.546 371.444 199.464 406.852 211.9C435.93 222.11 461.802 241.427 479.833 268.218L530.393 243.939L496.332 173C491.227 162.381 495.72 149.66 506.318 144.555C516.936 139.47 529.658 143.942 534.763 154.54L568.823 225.5L617.566 202.098C628.184 197.014 640.906 201.486 646.011 212.084C651.096 222.702 646.644 235.424 636.026 240.529L587.283 263.93L621.344 334.869C626.449 345.488 621.977 358.209 611.358 363.314C600.74 368.399 588.018 363.947 582.913 353.329L548.853 282.39L498.293 306.669C507.931 337.503 506.828 369.767 496.618 398.845C484.183 434.253 458.249 464.924 421.738 482.444C385.227 499.965 345.082 501.047 309.673 488.611C274.265 476.175 243.594 450.242 226.074 413.731Z" fill="#E2E2E2"/>
<path fill-rule="evenodd" clip-rule="evenodd" d="M222.786 425.004C215.394 409.607 210.922 393.557 209.166 377.486C224.256 388.84 241.328 397.641 259.767 403.399C260.236 404.461 260.706 405.503 261.217 406.564C273.652 432.457 295.4 450.855 320.516 459.677C345.633 468.498 374.098 467.743 399.991 455.307C425.884 442.871 444.282 421.124 453.103 396.007C461.925 370.891 461.169 342.425 448.733 316.533C436.298 290.64 414.55 272.242 389.434 263.42C364.317 254.599 335.852 255.375 309.959 267.79C288.641 278.041 272.386 294.602 262.401 314.164C250.966 306.466 241.511 296.011 234.956 283.514C234.323 282.309 233.731 281.104 233.16 279.899C247.249 258.826 266.995 241.142 291.499 229.36C328.01 211.839 368.156 210.757 403.564 223.193C432.643 233.403 458.515 252.72 476.546 279.511L527.105 255.232L493.045 184.293C487.96 173.674 492.432 160.953 503.03 155.848C513.649 150.763 526.37 155.235 531.475 165.833L565.536 236.772L614.278 213.371C624.897 208.286 637.618 212.758 642.723 223.356C647.828 233.975 643.356 246.696 632.738 251.801L583.996 275.203L618.056 346.162C623.161 356.781 618.689 369.502 608.071 374.607C597.452 379.712 584.731 375.24 579.626 364.622L545.565 293.683L494.985 317.942C504.623 348.776 503.52 381.039 493.31 410.118C480.875 445.526 454.941 476.197 418.43 493.717C381.94 511.237 341.774 512.32 306.365 499.884C270.977 487.448 240.307 461.515 222.786 425.004Z" fill="white"/>
<path fill-rule="evenodd" clip-rule="evenodd" d="M209.901 383.163C209.615 381.264 209.37 379.385 209.166 377.486C224.256 388.84 241.328 397.641 259.767 403.399C260.236 404.461 260.706 405.502 261.217 406.564C273.652 432.457 295.4 450.855 320.516 459.677C345.633 468.498 374.098 467.742 399.991 455.307C425.883 442.871 444.282 421.124 453.103 396.007C453.736 394.21 454.308 392.393 454.839 390.575C454.043 393.985 453.062 397.355 451.919 400.663C443.057 425.636 424.699 447.261 398.929 459.636C373.036 472.072 344.571 472.827 319.454 464.006C294.338 455.184 272.591 436.786 260.155 410.893C259.644 409.852 259.175 408.79 258.705 407.728C241.001 402.215 224.542 393.883 209.901 383.163ZM233.935 281.533C233.67 280.981 233.405 280.43 233.139 279.878C247.229 258.805 266.975 241.121 291.479 229.339C327.97 211.819 368.136 210.736 403.544 223.172C432.622 233.382 458.494 252.699 476.525 279.491L527.085 255.211L528.576 258.335L475.463 283.84C457.432 257.049 431.56 237.732 402.482 227.522C367.074 215.086 326.928 216.168 290.417 233.688C266.995 244.96 247.903 261.643 233.935 281.533ZM491.125 172.224C492.943 167.14 496.7 162.729 501.968 160.197C512.587 155.092 525.308 159.564 530.413 170.182L564.474 241.142L613.217 217.74C623.835 212.656 636.557 217.107 641.662 227.726C643.54 231.626 644.112 235.812 643.581 239.794C645.439 234.607 645.296 228.726 642.723 223.376C637.639 212.758 624.897 208.286 614.278 213.391L565.536 236.792L531.475 165.833C526.37 155.214 513.649 150.742 503.03 155.847C496.312 159.074 492.044 165.363 491.125 172.224ZM583.975 275.223L618.036 346.162C620.609 351.512 620.751 357.393 618.893 362.579C619.424 358.598 618.852 354.411 616.974 350.511L581.402 276.448L583.975 275.223ZM496.19 322.005C503.357 347.469 503.275 373.77 496.904 398.314C502.928 371.85 501.519 344.753 492.8 319.064L494.985 317.941L496.19 322.005Z" fill="#D9D9D9"/>
</svg>
