<svg width="276" height="162" viewBox="0 0 276 162" fill="none" xmlns="http://www.w3.org/2000/svg">
<path d="M71.5681 52.7902C71.5681 62.7921 84.3094 67.1172 90.5445 67.9282C89.189 70.0908 82.6828 74.6862 68.5861 74.6862C54.4893 74.6862 42.2902 68.4688 37.9527 65.225L46.8988 63.3327C46.0855 63.0624 42.8325 62.5218 36.3263 61.4405C29.8201 60.3592 23.3139 55.7637 21.1451 53.8714L36.3263 51.4386C35.2419 51.1682 31.7177 50.6276 24.3982 49.0057C17.0787 47.3838 11.1148 43.0586 9.21716 40.896L30.0911 37.6522C27.1091 37.3818 19.5186 36.8412 13.8257 35.76C8.13275 34.6787 2.16873 29.5425 0 27.1096H60.1822C69.6704 27.1096 71.5681 33.8677 71.0259 37.1116V52.7902H71.5681ZM241 67.9282C241 71.4424 235.578 74.1455 228.53 74.1455C224.463 74.1455 220.668 73.0643 218.499 71.4423H185.697V66.3062H216.602C217.957 63.603 222.837 61.7107 228.53 61.7107C235.307 61.7107 241 64.414 241 67.9282ZM168.348 83.0662C167.805 86.3101 166.721 89.8242 165.094 93.8791C161.028 103.881 151.811 111.991 147.745 114.964V118.749C156.691 114.964 173.227 102.529 177.565 82.2552L168.348 83.0662ZM86.7491 143.348C73.7368 151.457 56.9292 159.026 49.8808 162C53.1339 156.323 60.1822 144.699 63.7064 143.348C67.2306 142.267 70.2126 144.97 71.297 146.592C71.297 146.321 71.8392 144.429 73.7368 139.563C75.6344 134.698 81.3274 129.291 83.7672 127.129L73.7368 121.452C69.9415 124.425 59.9112 129.291 49.8808 126.318C39.8504 123.344 14.3678 102.259 2.71091 91.9868C3.25309 91.7165 5.42187 91.7165 10.3015 91.9868C16.5366 92.5274 20.3318 93.0681 24.6693 96.3119C28.1935 99.0152 27.3802 102.8 26.567 104.422H40.9348C47.712 104.422 51.2362 108.476 51.7784 110.639C51.2362 106.854 50.9652 98.2042 55.0315 93.8791C60.1823 88.743 65.8752 89.0132 76.9899 90.6352C87.8336 91.9868 92.171 84.9585 95.6952 76.3082C98.135 69.8205 101.93 67.3875 105.454 66.5766C98.135 65.4953 89.7312 57.3856 91.8999 45.7618C94.3397 33.327 105.454 27.1096 117.925 27.1096C127.955 27.1096 132.835 28.7315 133.919 29.5425C133.377 29.5425 132.292 30.0831 130.124 31.9754C128.226 33.8676 126.871 36.0303 126.328 36.8412H127.684H131.479C130.666 37.6522 128.768 39.8147 127.684 41.707C126.328 44.1399 126.328 46.5728 127.684 55.223C128.497 60.6295 126.6 64.414 124.973 66.3062C137.714 66.8469 155.064 67.3875 165.637 67.6579C166.179 66.8469 167.805 65.2249 168.619 64.6843C168.89 61.7108 168.89 53.6012 164.823 43.8696C160.757 33.8677 151.54 25.758 147.474 22.7845V19C157.504 23.3251 177.565 38.4632 178.378 64.1437C180.005 64.414 180.005 66.8469 180.005 70.3611C180.005 74.1456 176.751 72.2533 172.956 72.7939C169.161 73.3346 122.804 81.7145 120.364 83.3365C117.925 84.6881 118.467 92.2571 110.334 101.448C103.828 108.747 96.5084 110.909 93.5264 110.909L95.4241 114.153C95.6952 114.694 96.7796 116.316 98.6772 119.019C100.575 121.722 103.015 125.236 103.828 126.588C104.099 129.021 99.7615 135.238 86.7491 143.348Z" fill="white"/>
<path fill-rule="evenodd" clip-rule="evenodd" d="M212 38.2609C212 47.5604 218.273 53.4058 221.273 55C220.727 54.7343 220.455 52.8744 222.091 47.8261C223.727 42.5121 228.091 35.3382 230 32.1498C231.909 35.0725 236.273 42.5121 237.909 47.8261C239.545 52.8744 239 54.7343 238.727 55C241.727 53.1401 248 47.5604 248 38.2609C248 28.9614 236 8.76812 230 0C224 8.76812 212 28.9614 212 38.2609ZM221.545 55C221.273 55 221.273 55 221.545 55V55Z" fill="#E4062B"/>
</svg>
