<svg width="907" height="521" viewBox="0 0 907 521" fill="none" xmlns="http://www.w3.org/2000/svg">
<path d="M51.7527 519.688C51.7527 519.688 -50.3755 410.038 34.4816 291.323C109.771 185.994 197.552 193.191 261.953 235.936C289.384 254.143 368.466 238.179 435.778 131.001C527.572 -15.1607 845.758 73.486 787.743 298.361C759.666 407.184 873.189 411.139 815.346 519.917L51.7527 519.688Z" fill="#2D2B45"/>
<path d="M879.933 374.141C872.742 347.588 827.935 355.886 827.935 355.886C827.935 355.886 797.51 402.351 788.661 403.458C779.809 404.566 806.915 358.651 806.915 358.651C789.768 356.994 746.068 378.013 746.068 378.013C746.068 378.013 748.834 432.222 739.985 431.118C731.133 430.011 739.985 382.993 739.985 382.993C723.388 387.972 707.902 407.331 707.902 407.331C688.54 438.86 730.029 462.094 730.029 462.094C730.029 462.094 730.582 480.902 718.965 502.475C718.965 502.475 716.343 506.458 713.68 513.229H718.205C718.574 512.017 718.981 510.843 719.433 509.717C719.433 509.707 719.436 509.701 719.443 509.698C719.449 509.682 719.455 509.666 719.462 509.65C719.77 508.95 720.216 507.957 720.773 506.745L720.776 506.742C720.776 506.738 720.779 506.739 720.779 506.735C722.16 504.031 723.095 502.029 723.684 500.588C723.687 500.585 723.687 500.578 723.687 500.575C727.83 492.083 733.796 481.013 737.773 478.694C737.773 478.694 737.274 477.99 736.806 476.619C737.115 477.281 737.436 477.971 737.773 478.694C745.518 495.29 784.238 498.055 805.814 493.629C827.387 489.203 817.985 483.12 806.368 473.243C794.751 463.367 770.413 465.969 763.222 462.097C756.031 458.225 766.541 454.352 780.923 455.46C795.305 456.567 802.496 470.949 825.73 473.16C848.964 475.372 866.664 431.672 866.664 431.672C850.621 436.652 821.857 427.8 820.753 422.27C819.646 416.739 862.241 417.29 868.879 415.632C875.507 413.968 887.124 400.693 879.933 374.141Z" fill="white"/>
<path d="M761.238 102.839C761.238 102.839 757.834 100.268 756.952 96.4242C756.3 93.5733 757.935 89.9937 758.069 89.8314L753.506 88.9214C753.506 88.9214 752.154 94.9765 754.442 99.0047C755.142 100.239 757.178 101.938 758.486 102.572C759.93 103.275 761.238 102.839 761.238 102.839Z" fill="#D6D6D6"/>
<path d="M769.169 100.065L773.321 104.815C773.321 104.815 761.586 107.93 754.879 99.6289C754.876 99.6289 764.755 102.97 769.169 100.065Z" fill="white"/>
<path d="M555.179 40.4361C555.179 40.4361 559.414 33.4073 566.888 37.7092L570.983 33.2546C570.983 33.2546 566.707 30.4228 557.664 36.5797C551.743 40.6079 555.179 40.4361 555.179 40.4361Z" fill="#EA0319"/>
<path d="M550.993 47.3312C550.993 47.3312 549.571 39.6693 562.187 34.0151C562.187 34.0151 557.663 36.5829 556.718 44.3721L550.993 47.3312Z" fill="#CC0013"/>
<path d="M239.058 406.068C239.058 406.068 232.121 403.335 234.845 395.994L230.238 393C230.238 393 228.348 397.257 235.23 404.429C239.732 409.119 239.058 406.068 239.058 406.068Z" fill="#BFBFBF"/>
<path d="M245.864 408.776C245.864 408.776 239.214 411.207 232.246 400.764C232.246 400.764 235.227 404.429 242.349 404.098L245.864 408.776Z" fill="white"/>
<path d="M313.871 172.413C313.871 172.413 317.699 169.995 318.103 167.074C318.103 167.074 321.829 167.275 322.637 168.484C322.637 168.484 320.925 173.32 318.911 174.227C318.908 174.227 314.377 174.529 313.871 172.413Z" fill="#EA0319"/>
<path d="M62.6015 347.164C62.6015 347.164 58.5192 344.584 58.0864 341.469C58.0864 341.469 54.1091 341.685 53.25 342.974C53.25 342.974 55.0764 348.132 57.2273 349.099C57.2273 349.099 62.0638 349.423 62.6015 347.164Z" fill="#EA0319"/>
<path d="M520.207 119.458C520.207 119.458 514.502 115.856 513.904 111.503C513.904 111.503 508.348 111.802 507.148 113.603C507.148 113.603 509.7 120.807 512.704 122.159C512.701 122.159 519.456 122.608 520.207 119.458Z" fill="white"/>
<path d="M870.421 102.705L905.88 213.727C907.445 218.624 904.715 223.915 899.818 225.48L705.057 287.686C700.16 289.251 694.868 286.521 693.303 281.624L657.844 170.603C656.279 165.706 659.009 160.415 663.906 158.849L858.667 96.6437C863.567 95.0782 868.856 97.8051 870.421 102.705Z" fill="white"/>
<path d="M758.415 243.83L706.506 260.408C704.31 261.108 701.94 259.886 701.237 257.69L701.077 257.191C700.374 254.995 701.599 252.625 703.795 251.922L755.704 235.341C757.899 234.641 760.27 235.863 760.973 238.058L761.132 238.558C761.832 240.76 760.61 243.13 758.415 243.83Z" fill="#2F2D48"/>
<path d="M826.821 221.983L774.912 238.564C772.717 239.264 770.346 238.042 769.643 235.847L769.484 235.347C768.781 233.152 770.006 230.781 772.201 230.078L824.11 213.497C826.305 212.797 828.676 214.019 829.379 216.214L829.538 216.714C830.238 218.91 829.016 221.28 826.821 221.983Z" fill="#2F2D48"/>
<path d="M765.034 184.476C765.639 186.369 765.804 188.024 765.53 189.443C765.187 191.234 764.149 192.405 762.415 192.959C760.681 193.512 759.157 193.159 757.84 191.899C756.793 190.9 755.969 189.455 755.364 187.562C754.76 185.669 754.591 184.024 754.855 182.618C755.199 180.826 756.242 179.652 757.989 179.095C759.736 178.538 761.267 178.888 762.584 180.148C763.612 181.141 764.429 182.583 765.034 184.476ZM762.648 185.227C762.269 184.04 761.817 183.085 761.289 182.366C760.487 181.288 759.615 180.899 758.677 181.198C757.712 181.507 757.219 182.325 757.2 183.652C757.178 184.549 757.356 185.596 757.741 186.795C758.772 190.025 760.112 191.377 761.76 190.849C762.711 190.544 763.195 189.716 763.208 188.364C763.22 187.486 763.036 186.439 762.648 185.227Z" fill="#2F2D48"/>
<path d="M775.694 181.07C776.299 182.964 776.464 184.618 776.19 186.037C775.847 187.829 774.81 189 773.075 189.553C771.341 190.107 769.817 189.754 768.5 188.494C767.453 187.495 766.629 186.05 766.024 184.157C765.42 182.264 765.251 180.615 765.515 179.212C765.859 177.421 766.903 176.247 768.649 175.69C770.396 175.133 771.927 175.483 773.244 176.743C774.275 177.739 775.09 179.177 775.694 181.07ZM773.311 181.821C772.932 180.635 772.48 179.68 771.952 178.961C771.15 177.882 770.279 177.494 769.34 177.793C768.376 178.102 767.883 178.92 767.864 180.246C767.841 181.144 768.019 182.19 768.404 183.39C769.435 186.62 770.775 187.972 772.423 187.444C773.375 187.138 773.858 186.311 773.871 184.959C773.884 184.081 773.699 183.034 773.311 181.821Z" fill="#2F2D48"/>
<path d="M791.839 175.913C792.443 177.806 792.609 179.461 792.335 180.88C791.991 182.672 790.954 183.842 789.22 184.396C787.486 184.95 785.962 184.597 784.644 183.337C783.598 182.337 782.773 180.893 782.169 179C781.564 177.106 781.396 175.458 781.66 174.055C782.004 172.264 783.047 171.09 784.794 170.533C786.541 169.976 788.071 170.326 789.389 171.586C790.419 172.579 791.237 174.02 791.839 175.913ZM789.455 176.664C789.077 175.477 788.622 174.523 788.097 173.804C787.295 172.725 786.423 172.337 785.484 172.636C784.52 172.945 784.027 173.762 784.008 175.089C783.986 175.986 784.164 177.033 784.549 178.233C785.58 181.462 786.919 182.815 788.568 182.287C789.519 181.981 790.003 181.154 790.015 179.801C790.028 178.92 789.844 177.876 789.455 176.664Z" fill="#2F2D48"/>
<path d="M802.499 172.509C803.103 174.402 803.269 176.057 802.995 177.476C802.651 179.267 801.614 180.438 799.88 180.992C798.146 181.545 796.622 181.192 795.305 179.932C794.258 178.933 793.434 177.488 792.829 175.595C792.225 173.702 792.056 172.054 792.32 170.651C792.664 168.859 793.707 167.685 795.454 167.128C797.201 166.571 798.731 166.922 800.049 168.185C801.08 169.174 801.894 170.616 802.499 172.509ZM800.116 173.26C799.737 172.073 799.285 171.118 798.757 170.399C797.955 169.321 797.083 168.932 796.145 169.232C795.181 169.54 794.687 170.358 794.668 171.685C794.646 172.582 794.824 173.629 795.209 174.828C796.24 178.058 797.58 179.41 799.228 178.882C800.179 178.577 800.663 177.749 800.676 176.397C800.688 175.516 800.504 174.472 800.116 173.26Z" fill="#2F2D48"/>
<path d="M813.159 169.104C813.764 170.997 813.929 172.652 813.655 174.071C813.312 175.862 812.274 177.033 810.54 177.587C808.806 178.141 807.282 177.787 805.965 176.527C804.918 175.528 804.094 174.084 803.489 172.19C802.885 170.297 802.716 168.652 802.98 167.246C803.324 165.454 804.367 164.28 806.114 163.724C807.861 163.167 809.392 163.517 810.709 164.78C811.737 165.773 812.554 167.211 813.159 169.104ZM810.776 169.855C810.397 168.668 809.945 167.714 809.417 166.994C808.615 165.916 807.743 165.528 806.805 165.827C805.841 166.135 805.347 166.953 805.328 168.28C805.306 169.177 805.484 170.224 805.869 171.424C806.9 174.653 808.24 176.006 809.888 175.477C810.839 175.172 811.323 174.345 811.336 172.992C811.348 172.114 811.161 171.067 810.776 169.855Z" fill="#2F2D48"/>
<path d="M823.811 165.699C824.416 167.592 824.581 169.247 824.308 170.666C823.964 172.458 822.927 173.628 821.193 174.182C819.459 174.736 817.934 174.383 816.617 173.123C815.57 172.123 814.746 170.679 814.142 168.786C813.537 166.892 813.368 165.247 813.633 163.841C813.976 162.05 815.02 160.876 816.767 160.319C818.513 159.762 820.044 160.112 821.361 161.375C822.392 162.368 823.207 163.806 823.811 165.699ZM821.428 166.45C821.049 165.263 820.598 164.309 820.069 163.59C819.268 162.511 818.396 162.123 817.457 162.422C816.493 162.731 816 163.548 815.981 164.875C815.958 165.772 816.137 166.819 816.522 168.019C817.553 171.248 818.892 172.601 820.54 172.073C821.492 171.767 821.975 170.94 821.988 169.588C822.001 168.709 821.816 167.662 821.428 166.45Z" fill="#2F2D48"/>
<path d="M839.971 160.542C840.576 162.435 840.741 164.089 840.468 165.509C840.124 167.3 839.087 168.471 837.353 169.025C835.619 169.578 834.095 169.225 832.777 167.965C831.73 166.966 830.906 165.521 830.302 163.628C829.697 161.735 829.529 160.09 829.793 158.683C830.136 156.892 831.18 155.718 832.927 155.161C834.674 154.604 836.204 154.954 837.521 156.214C838.549 157.207 839.367 158.648 839.971 160.542ZM837.588 161.293C837.21 160.106 836.755 159.151 836.23 158.432C835.428 157.353 834.556 156.965 833.617 157.264C832.653 157.573 832.16 158.391 832.141 159.718C832.119 160.615 832.297 161.662 832.682 162.861C833.713 166.091 835.052 167.443 836.7 166.915C837.652 166.609 838.136 165.782 838.148 164.43C838.158 163.549 837.973 162.505 837.588 161.293Z" fill="#2F2D48"/>
<path d="M850.624 157.137C851.228 159.031 851.394 160.685 851.12 162.104C850.776 163.896 849.739 165.067 848.005 165.62C846.271 166.174 844.747 165.821 843.43 164.561C842.383 163.562 841.559 162.117 840.954 160.224C840.35 158.331 840.181 156.682 840.445 155.279C840.789 153.488 841.832 152.314 843.579 151.757C845.326 151.2 846.856 151.55 848.174 152.81C849.205 153.803 850.019 155.244 850.624 157.137ZM848.241 157.888C847.862 156.701 847.41 155.747 846.882 155.028C846.08 153.949 845.208 153.561 844.27 153.86C843.306 154.169 842.812 154.986 842.793 156.313C842.771 157.211 842.949 158.257 843.334 159.457C844.365 162.687 845.705 164.039 847.353 163.511C848.304 163.205 848.788 162.378 848.801 161.026C848.813 160.147 848.629 159.101 848.241 157.888Z" fill="#2F2D48"/>
<path d="M861.288 153.732C861.892 155.625 862.058 157.28 861.784 158.699C861.441 160.49 860.403 161.661 858.669 162.215C856.935 162.768 855.411 162.415 854.094 161.155C853.047 160.156 852.223 158.712 851.618 156.818C851.014 154.925 850.845 153.277 851.109 151.874C851.453 150.082 852.496 148.908 854.243 148.351C855.99 147.795 857.52 148.145 858.838 149.408C859.866 150.401 860.683 151.839 861.288 153.732ZM858.905 154.483C858.526 153.296 858.074 152.342 857.546 151.622C856.744 150.544 855.872 150.156 854.934 150.455C853.97 150.763 853.476 151.581 853.457 152.908C853.435 153.805 853.613 154.852 853.998 156.052C855.029 159.281 856.369 160.633 858.017 160.105C858.968 159.8 859.452 158.973 859.465 157.62C859.477 156.742 859.29 155.695 858.905 154.483Z" fill="#2F2D48"/>
<path d="M871.944 150.328C872.549 152.221 872.714 153.876 872.44 155.295C872.097 157.086 871.06 158.257 869.325 158.811C867.591 159.364 866.067 159.011 864.75 157.751C863.703 156.752 862.879 155.307 862.274 153.414C861.67 151.521 861.501 149.873 861.765 148.47C862.109 146.678 863.153 145.504 864.899 144.947C866.646 144.39 868.177 144.74 869.494 146C870.522 146.996 871.34 148.438 871.944 150.328ZM869.558 151.079C869.179 149.892 868.727 148.937 868.199 148.218C867.397 147.14 866.525 146.751 865.587 147.05C864.623 147.359 864.129 148.177 864.11 149.504C864.088 150.401 864.266 151.448 864.651 152.647C865.682 155.877 867.022 157.229 868.67 156.701C869.621 156.396 870.105 155.568 870.118 154.216C870.13 153.338 869.946 152.291 869.558 151.079Z" fill="#2F2D48"/>
<path d="M729.347 156.647L678.549 172.871C676.353 173.574 673.983 172.349 673.279 170.154C672.579 167.958 673.801 165.588 675.997 164.885L726.795 148.66C728.991 147.96 731.361 149.182 732.064 151.378C732.768 153.576 731.542 155.947 729.347 156.647Z" fill="#2F2D48"/>
<path d="M852.725 126.606C852.26 125.155 851.331 123.984 850.151 123.201C849.807 122.972 849.343 123.096 849.158 123.465L848.999 123.784C848.846 124.089 848.938 124.465 849.222 124.655C850.074 125.228 850.746 126.081 851.083 127.131C851.42 128.184 851.366 129.266 851.004 130.227C850.883 130.548 851.023 130.908 851.328 131.067L851.643 131.232C852.006 131.423 852.458 131.255 852.604 130.87C853.11 129.549 853.189 128.057 852.725 126.606Z" fill="#2F2D48"/>
<path d="M856.018 125.556C855.258 123.173 853.67 121.277 851.678 120.087C851.341 119.886 850.902 120.02 850.724 120.373L850.631 120.554C850.469 120.876 850.587 121.267 850.896 121.452C852.56 122.457 853.883 124.045 854.52 126.037C855.156 128.029 855 130.087 854.227 131.872C854.084 132.203 854.211 132.591 854.532 132.76L854.711 132.856C855.057 133.04 855.496 132.894 855.656 132.534C856.585 130.402 856.779 127.94 856.018 125.556Z" fill="#2F2D48"/>
<path d="M858.904 124.634C857.886 121.446 855.738 118.922 853.04 117.37C852.699 117.176 852.266 117.309 852.088 117.659C851.926 117.984 852.044 118.378 852.359 118.56C854.771 119.947 856.689 122.2 857.599 125.051C858.509 127.902 858.252 130.851 857.09 133.378C856.937 133.709 857.071 134.097 857.393 134.269C857.739 134.45 858.172 134.31 858.334 133.954C859.633 131.122 859.922 127.825 858.904 124.634Z" fill="#2F2D48"/>
<path d="M862.022 123.638C860.724 119.575 857.965 116.38 854.509 114.442C854.169 114.252 853.736 114.382 853.558 114.732L853.402 115.044C853.237 115.372 853.358 115.769 853.676 115.947C856.759 117.682 859.219 120.536 860.377 124.163C861.535 127.79 861.185 131.542 859.677 134.74C859.521 135.07 859.654 135.465 859.976 135.634L860.284 135.796C860.631 135.977 861.061 135.834 861.226 135.481C862.922 131.901 863.32 127.698 862.022 123.638Z" fill="#2F2D48"/>
<path d="M730.963 199.107H620.078V518.499H730.963V199.107Z" fill="#242238"/>
<path d="M620.081 199.107H327.137V518.499H620.081V199.107Z" fill="#242238"/>
<path d="M620.082 377.703V355.347L327.137 355.347V377.703L620.082 377.703Z" fill="white"/>
<path d="M730.969 377.701V355.346H620.084V377.701H730.969Z" fill="#C8C8C8"/>
<path d="M529.114 202.527C529.114 202.527 595.297 159.521 640.285 173.34L631.004 182.007L635.185 196.574C635.185 196.574 585.16 180.283 527.746 204.977L529.114 202.527Z" fill="#EA0319"/>
<path d="M525.411 192.787C525.411 192.787 513.733 191.375 496.329 188.982C450.125 182.624 363.581 169.331 348.047 157.026C323.639 137.697 381.476 55.6077 406.514 44.2134C431.549 32.8287 525.411 192.787 525.411 192.787Z" fill="#EA0319"/>
<path d="M708.52 90.5638C712.692 110.902 523.695 198.76 523.695 198.76C523.695 198.76 527.135 189.462 532.729 174.902C532.729 174.902 532.738 174.89 532.745 174.877C553.178 121.705 602.402 -1.68798 618.578 0.0175006C620.204 0.186139 622.104 0.765238 624.226 1.69752C649.07 12.6304 704.676 71.8353 708.52 90.5638Z" fill="#EA0319"/>
<path d="M622.63 19.7832C611.089 39.8322 533.948 172.805 532.742 174.877C553.176 121.705 602.4 -1.68798 618.576 0.0175006C618.576 0.0175006 621.78 -0.0747738 624.224 1.69752C627.17 3.84846 629 8.71354 622.63 19.7832Z" fill="#CC0013"/>
<path d="M496.362 188.982H496.33C450.126 182.624 363.583 169.331 348.049 157.026C341.036 137.27 359.233 135.66 372.479 134.27C385.712 132.879 496.362 188.982 496.362 188.982Z" fill="#CC0013"/>
<path d="M490.168 199.081C490.168 199.081 500.764 174.978 521.614 173.645C543.394 172.252 555.762 199.081 555.762 199.081H490.168Z" fill="#CC0013"/>
<path d="M624.783 199.107H318.258V243.036H624.783V199.107Z" fill="#1A182D"/>
<path d="M740.319 199.107H624.785V243.036H740.319V199.107Z" fill="#151325"/>
<path d="M500.901 195.426C500.901 195.426 440.866 176.408 400.354 188.982C353.657 203.476 356.426 261.093 356.426 261.093L367.409 256.578L382.237 263.533C382.237 263.533 384.738 202.521 422.809 193.978C455.725 186.596 500.901 195.426 500.901 195.426Z" fill="#EA0319"/>
<path d="M470.102 199.107H447.746V518.464H470.102V199.107Z" fill="white"/>
<path d="M264.888 103.224L244.363 110.103L264.177 169.219L284.702 162.34L264.888 103.224Z" fill="#CC0013"/>
<path d="M244.359 110.107L190.137 128.28L209.95 187.396L264.172 169.222L244.359 110.107Z" fill="#EA0319"/>
<path d="M255.418 143.17L254.031 139.033L199.809 157.206L201.195 161.343L255.418 143.17Z" fill="white"/>
<path d="M275.945 136.292L274.559 132.156L254.034 139.035L255.42 143.171L275.945 136.292Z" fill="#D5D5D5"/>
<path d="M229.376 114.109C229.376 114.109 243.468 100.993 256.018 99.9751L254.223 102.298L256.304 104.64C256.304 104.64 242.288 105.601 229.191 114.666L229.376 114.109Z" fill="#EA0319"/>
<path d="M226.433 114.806C226.433 114.806 224.184 115.27 220.814 115.907C211.867 117.596 195.025 120.504 191.388 119.19C185.67 117.129 191.283 98.346 195.213 94.6836C199.139 91.0213 226.433 114.806 226.433 114.806Z" fill="white"/>
<path d="M253.982 84.5266C256.015 88.033 226.484 116.017 226.484 116.017C226.484 116.017 226.545 114.083 226.675 111.041C226.675 111.041 226.675 111.038 226.675 111.035C227.159 99.9268 228.616 74.0328 231.715 73.3455C232.027 73.2755 232.415 73.266 232.864 73.3073C238.143 73.791 252.108 81.297 253.982 84.5266Z" fill="white"/>
<path d="M233.7 76.7536C232.809 81.1796 226.779 110.577 226.684 111.035C227.167 99.9272 228.625 74.0331 231.724 73.3459C231.724 73.3459 232.312 73.1295 232.872 73.3077C233.55 73.524 234.19 74.31 233.7 76.7536Z" fill="#C8C8C8"/>
<path d="M220.82 115.904L220.814 115.907C211.867 117.597 195.025 120.505 191.388 119.191C188.865 115.967 192.133 114.542 194.497 113.463C196.861 112.385 220.82 115.904 220.82 115.904Z" fill="#C8C8C8"/>
<path d="M220.301 118.156C220.301 118.156 220.765 113.037 224.542 111.497C228.488 109.886 232.44 114.087 232.44 114.087L220.301 118.156Z" fill="#CC0013"/>
<path d="M245.228 109.814L188.492 128.83L191.217 136.961L247.953 117.945L245.228 109.814Z" fill="#CC0013"/>
<path d="M266.611 102.646L245.227 109.813L247.952 117.944L269.337 110.777L266.611 102.646Z" fill="#A90010"/>
<path d="M222.059 116.813C222.059 116.813 209.768 117.017 203.051 121.857C195.306 127.435 199.395 137.928 199.395 137.928L201.148 136.411L204.324 136.78C204.324 136.78 201.002 125.331 207.518 121.389C213.15 117.981 222.059 116.813 222.059 116.813Z" fill="#EA0319"/>
<path d="M216.597 119.414L212.461 120.8L232.445 180.426L236.582 179.04L216.597 119.414Z" fill="white"/>
<path d="M622.393 232.986C622.393 232.986 614.276 237.769 619.256 247.031C619.256 247.031 612.151 245.73 610.617 243.611C610.617 243.611 610.795 244.495 611.059 244.941C611.059 244.941 604.527 243.461 602.389 240.734C600.251 238.007 610.732 205.355 627.713 213.812C627.713 213.812 643.241 216.692 637.16 233.931C631.08 251.171 636.826 252.692 636.826 252.692C636.826 252.692 635.019 253.057 634.249 252.851C634.249 252.851 633.234 252.122 633.177 251.438C633.177 251.438 633.138 252.475 633.348 252.863C633.348 252.863 626.988 251.807 624.509 248.647C622.03 245.488 620.548 236.388 622.393 232.986Z" fill="#413E64"/>
<path d="M610.674 260.742C610.664 260.745 610.654 260.748 610.645 260.751C610.593 260.745 610.606 260.742 610.674 260.742Z" fill="#FFB27D"/>
<path d="M630.403 255.062C630.642 257.2 630.928 259.116 631.052 260.029C631.339 262.075 611.914 260.745 610.676 260.742C611.538 260.366 614.173 252.008 615.01 248.823C616.021 244.957 616.814 240.779 616.814 240.779L630.527 241.644L631.342 241.695C630.836 243.566 630.476 245.332 630.225 246.971C630.193 247.19 630.162 247.416 630.133 247.633C629.888 249.449 630.107 252.424 630.403 255.062Z" fill="#FFB27D"/>
<path d="M614.923 239.394C614.923 239.394 612.699 232.343 613.15 226.934C613.472 223.075 618.967 209.905 632.181 215.508C632.181 215.508 636.066 216.956 639.146 220.481C641.596 223.285 644.746 228.773 636.779 239.423L634.463 243.12L614.923 239.394Z" fill="#413E64"/>
<path d="M630.4 255.062C620.807 252.252 616.734 241.17 616.734 241.17C620.791 241.288 626.079 244.107 630.225 246.967C630.194 247.187 630.162 247.413 630.133 247.629C629.885 249.449 630.105 252.424 630.4 255.062Z" fill="#ED975D"/>
<path d="M631.078 251.168C631.078 251.168 613.747 246.885 616.578 236.13C619.413 225.379 619.086 217.583 630.27 219.861C641.457 222.143 642.517 226.81 642.444 230.629C642.371 234.45 635.66 252.008 631.078 251.168Z" fill="#FFB27D"/>
<path d="M638.198 221.681C638.198 221.681 630.136 233.04 622.388 232.986C614.643 232.932 612.012 230.154 612.012 230.154C612.012 230.154 618.745 227.208 621.939 219.8C621.939 219.804 636.223 214.735 638.198 221.681Z" fill="#413E64"/>
<path d="M636.758 222.397C636.758 222.397 639.542 226.148 639.676 229.11C639.812 232.076 638.705 237.813 640.401 238.058C640.401 238.058 646.23 230.428 643.513 224.519C640.633 218.254 636.758 222.397 636.758 222.397Z" fill="#413E64"/>
<path d="M637.303 222.995C637.303 222.995 630.44 235.312 620.172 237.12C620.172 237.12 631.471 231.427 634.554 222.916C637.637 214.404 637.303 222.995 637.303 222.995Z" fill="#413E64"/>
<path d="M628.375 244.275C628.375 244.275 628.591 245.914 629.635 246.299C630.679 246.687 633.45 247.387 633.733 247.215C634.016 247.044 635.054 245.765 635.054 245.765C635.054 245.765 630.685 244.088 628.375 244.275Z" fill="white"/>
<path d="M621.9 408.762C621.68 409.682 621.461 410.592 621.241 411.496C619.933 416.927 618.718 421.961 617.951 426.174C616.955 431.659 616.72 435.738 618.027 437.453C623.411 444.511 618.027 500.521 618.027 500.521L611.902 506.831C611.902 506.831 601.253 451.533 598.363 442.869C597.049 438.93 595.137 422.107 593.447 404.931C593.362 404.072 593.279 403.213 593.196 402.354C592.903 399.35 592.623 396.356 592.35 393.439C590.835 377.189 589.699 363.275 589.699 363.275C589.699 363.275 600.995 355.333 611.26 354.448C617.305 353.92 622.994 355.845 625.801 363.275C629.892 374.083 625.747 392.748 621.9 408.762Z" fill="#FFB27D"/>
<path d="M621.905 408.762C613.512 402.701 601.704 391.914 597.418 374.229C596.597 365.438 603.53 357.086 611.265 354.445C617.311 353.916 623 355.841 625.806 363.271C629.898 374.083 625.752 392.748 621.905 408.762Z" fill="#ED975D"/>
<path d="M652.51 301.959L693.76 312.616V317.433C693.76 317.433 652.711 316.952 650.063 312.38C647.416 307.805 652.51 301.959 652.51 301.959Z" fill="#FFB27D"/>
<path d="M693.76 460.718L691.831 468.679C691.831 468.679 636.031 439.858 628.815 434.324C625.916 432.1 622.085 420.025 618.537 406.362C613.252 386.002 608.594 362.118 608.594 362.118C608.594 362.118 616.418 332.034 637.355 350.447C649.885 361.466 647.938 382.699 646.563 399.209C645.65 410.289 644.991 419.246 649.147 421.568C657.251 426.093 681.035 446.931 688.564 461.265L693.76 460.718Z" fill="#FFB27D"/>
<path d="M599.102 326.988C584.529 323.281 568.512 300.671 568.512 300.671L572.616 297.11C576.864 302.119 594.527 310.745 594.527 310.745C594.431 306.159 594.552 301.982 594.842 298.176C596.802 272.314 606.551 263.698 609.211 261.807C609.641 261.502 609.885 261.372 609.885 261.372C609.885 261.372 609.895 261.559 609.911 261.916C609.949 262.683 610.019 264.232 610.092 266.358C610.633 282.191 611.279 330.09 599.102 326.988Z" fill="#FFB27D"/>
<path d="M610.643 295.952C609.889 314.401 607.127 332.671 599.096 331.494C589.251 330.056 586.687 320.866 586.162 314.035C585.837 309.784 586.305 306.446 586.305 306.446C586.305 306.446 591.151 306.424 591.933 305.702C595.656 302.265 594.549 268.55 596.391 265.05C598.234 261.55 610.188 259.304 610.188 259.304C610.188 259.304 611.394 277.717 610.643 295.952Z" fill="white"/>
<path d="M610.641 295.952C609.887 314.4 607.125 332.671 599.094 331.493C589.25 330.055 586.685 320.866 586.16 314.034C588.578 313.914 592.832 313.322 594.525 310.744C596.947 307.053 604.5 283.288 604.5 283.288C604.5 283.288 607.469 288.624 610.641 295.952Z" fill="#DFEBFD"/>
<path d="M672.756 301.96C675.425 305.75 673.955 313.1 668.358 319.015C664.884 322.69 660.175 324.863 652.513 323.733C649.172 323.24 639.842 317.974 638.859 311.55C638.684 310.385 638.586 309.705 638.586 309.705C638.586 309.705 634.338 313.959 634.179 314.761C634.106 315.123 633.74 318.337 633.682 318.776C633.616 319.307 633.994 321.258 633.994 321.258C633.994 321.258 613.697 330.135 596.919 320.027C596.919 320.027 592.134 279.028 595.57 272.206C597.279 268.818 606.856 262.215 610.191 259.301C610.938 258.645 611.702 256.669 611.495 255.393C611.327 254.318 612.564 252.504 613.602 252.835C615.606 253.478 621.283 256.284 625.276 255.215C627.265 254.687 629.788 252.387 631.716 252.915C634.074 253.557 631.582 259.231 632.919 259.304C634.758 259.393 644.698 261.382 645.535 262.985C645.824 263.542 648.682 271.109 652.261 281.119C652.261 281.119 652.264 281.125 652.268 281.144C658.981 299.92 668.839 296.398 672.756 301.96Z" fill="white"/>
<path d="M638.586 309.704C638.586 309.704 638.093 294.065 636.83 294.256C635.567 294.447 617.335 311.995 621.668 319.017C625.999 326.033 638.586 309.704 638.586 309.704Z" fill="#DFEBFD"/>
<path d="M652.512 373.829C652.512 373.829 645.486 375.999 635.133 377.43C622.316 379.203 604.399 379.842 588.397 373.829C588.397 373.829 587.08 350.019 590.87 337.606C594.662 325.191 596.435 319.253 596.435 319.253C596.435 319.253 611.625 323.062 627.051 320.109C629.217 319.699 631.388 319.148 633.523 318.436C633.523 318.436 643.039 338.64 645.655 347.298C648.27 355.956 652.512 373.829 652.512 373.829Z" fill="#EA0319"/>
<path d="M652.511 373.829C652.511 373.829 645.485 375.999 635.132 377.43C616.149 366.666 625.405 321.376 625.405 321.376C625.968 320.917 626.518 320.497 627.05 320.109C629.217 319.699 631.387 319.148 633.522 318.436C633.522 318.436 643.039 338.64 645.654 347.298C648.27 355.956 652.511 373.829 652.511 373.829Z" fill="#CC0013"/>
<path d="M612.572 323.734C601.318 323.734 596.682 319.861 596.338 319.597L595.609 314.296C595.718 314.376 610.815 323.444 634.183 314.761L633.687 318.776C624.701 322.114 618.417 323.734 612.572 323.734Z" fill="#EA0319"/>
<path d="M693.766 312.616C693.766 312.616 701.332 308.887 704.342 308.527C707.352 308.168 712.405 308.047 712.405 308.527C712.405 309.008 706.989 312.371 705.545 312.616C704.1 312.861 701.332 314.907 702.175 315.145C703.018 315.387 707.47 314.363 707.53 315.145C707.591 315.928 704.823 316.409 704.342 317.01C703.862 317.611 702.175 318.334 699.467 317.974C696.76 317.614 693.766 317.433 693.766 317.433V312.616Z" fill="#FFB27D"/>
<path d="M572.609 297.101L568.495 300.69C568.495 300.69 561.186 295.351 560.836 293.165V292.945C560.836 290.67 565.475 285.942 569.325 285.767C569.72 285.767 570.07 285.856 570.375 286.031C572.427 287.314 572.669 292.662 572.653 295.427C572.65 296.436 572.609 297.101 572.609 297.101Z" fill="#FFB27D"/>
<path d="M693.762 460.718L691.833 468.679C691.833 468.679 636.033 439.858 628.816 434.325C625.918 432.1 622.087 420.025 618.539 406.362C623.302 407.339 633.586 407.861 646.568 399.209C645.655 410.289 644.996 419.246 649.152 421.568C657.256 426.093 681.04 446.931 688.569 461.265L693.762 460.718Z" fill="#EA0319"/>
<path d="M704.791 463.808C704.791 463.808 704.775 463.805 704.74 463.796C704.488 463.732 703.343 463.353 702.583 461.53C702.08 460.327 701.93 459.341 701.472 458.151L699.588 454.899C697.619 452.303 696.925 452.91 696.925 452.91C696.925 452.91 696.41 453.572 695.649 454.441C694.392 455.879 692.464 457.884 691.099 458.399C690.129 458.762 689.524 459.366 689.149 459.923C688.675 460.626 688.566 461.26 688.566 461.26C688.566 461.26 692.614 461.966 692.261 463.958C691.573 467.817 691.736 468.517 691.806 468.645L691.831 468.67C691.831 468.67 698.732 472.282 700.937 472.991C704.864 474.248 706.916 476.918 708.189 478.136C708.704 478.629 709.417 478.858 710.12 478.744C711.154 478.582 712.497 478.248 712.793 477.614L704.791 463.808Z" fill="#EA0319"/>
<path d="M618.037 437.453C623.421 444.51 618.037 500.52 618.037 500.52L611.912 506.83C611.912 506.83 601.262 451.532 598.373 442.868C597.059 438.929 595.147 422.106 593.457 404.931C598.561 407.209 611.018 412.169 621.251 411.495C619.943 416.926 618.727 421.96 617.961 426.173C616.965 431.658 616.729 435.737 618.037 437.453Z" fill="#CC0013"/>
<path d="M624.19 509.636L620.884 511.425C619.682 511.851 618.692 511.972 617.476 512.44C615.631 513.146 614.33 514.537 614.269 514.788C613.337 518.577 612.013 518.339 612.013 518.339L598.735 518.463C598.108 518.151 599.171 515.469 599.68 514.969C600.937 513.732 604.692 514.355 606.063 510.467C606.836 508.281 610.645 501.488 610.645 501.488L610.67 501.465C610.798 501.399 611.504 501.259 615.341 502.054C617.324 502.465 618.145 498.439 618.145 498.439C618.145 498.439 618.775 498.564 619.465 499.06C620.012 499.448 620.598 500.072 620.932 501.052C621.406 502.43 623.357 504.415 624.757 505.713C625.606 506.499 626.252 507.034 626.252 507.034C626.252 507.034 626.841 507.743 624.19 509.636Z" fill="#CC0013"/>
<path d="M122.001 289.773C122.001 289.773 163.992 320.548 174.267 319.804C184.541 319.059 220.916 296.614 220.916 296.614L213.219 287.463C213.219 287.463 180.274 299.669 174.241 296.306C168.208 292.939 144.647 264.376 134.761 265.9C124.875 267.43 115.109 278.71 122.001 289.773Z" fill="#233862"/>
<path d="M97.2375 521H84.6851C83.1037 520.141 81.6973 518.178 81.2518 515.247C80.6377 511.203 76.1068 508.998 75.1268 505.689C74.1467 502.383 79.1709 497.728 79.1709 497.728L80.0109 496.646L80.8859 495.523L89.2161 497.486C89.2161 497.486 89.4229 499.472 89.547 501.998C89.6392 503.821 89.687 505.928 89.582 507.776C89.337 512.186 90.8165 516.937 94.7334 517.796C97.6321 518.429 97.5016 520.147 97.2375 521Z" fill="white"/>
<path d="M170.085 521H141.378C139.997 519.314 140.506 513.096 140.716 511.066C140.761 510.656 140.79 510.42 140.79 510.42C140.79 510.42 150.593 502.58 151.939 508.584C151.98 508.772 152.031 508.957 152.085 509.138C153.781 514.754 161.392 517.306 165.786 518.015C168.637 518.48 169.694 519.966 170.085 521Z" fill="white"/>
<path d="M164.617 360.757C164.617 360.757 163.128 379.33 161.378 401.654C159.001 431.98 156.141 469.23 155.858 476.288C155.368 488.541 153.408 508.141 153.408 508.141C153.408 508.141 148.756 512.796 139.443 510.836C139.443 510.836 131.144 482.855 128.774 453.251C128.736 452.767 128.701 452.277 128.662 451.787C126.457 421.649 123.027 358.187 123.027 358.187L164.617 360.757Z" fill="#EA0319"/>
<path d="M164.621 360.758C164.621 360.758 163.132 379.33 161.382 401.654L128.774 453.248C128.736 452.764 128.701 452.274 128.662 451.784C126.457 421.646 123.027 358.184 123.027 358.184L164.621 360.758Z" fill="#CC0013"/>
<path d="M157.82 362.963C157.82 362.963 130.991 430.221 113.348 461.83C95.7073 493.439 90.1931 502.259 90.1931 502.259C90.1931 502.259 80.0843 498.214 79.168 495.459C79.168 495.459 85.9135 434.437 97.7278 419.562C104.403 411.156 112.247 385.933 112.613 377.11C112.982 368.289 115.002 350.831 115.002 350.831L157.82 362.963Z" fill="#EA0319"/>
<path d="M140.135 267.198C130.121 271.739 111.043 265.044 111.043 265.044C111.043 265.044 119.771 256.686 117.464 241.769L126.294 247.286L132.291 251.031C132.291 251.031 132.581 253.631 132.533 258.254C132.521 259.47 132.486 260.828 132.412 262.318C137.176 264.23 140.135 267.198 140.135 267.198Z" fill="#FFB27D"/>
<path d="M132.287 251.028C132.287 251.028 132.576 253.627 132.529 258.251C126.346 257.942 118.293 248.979 118.293 248.979C121.271 247.715 123.95 247.232 126.289 247.28L132.287 251.028Z" fill="#ED975D"/>
<path d="M135.446 250.397C135.446 250.397 118.598 255.326 115.69 244.784C112.782 234.243 108.648 227.78 119.285 224.188C129.919 220.596 133.13 224.039 134.956 227.322C136.779 230.606 139.754 248.844 135.446 250.397Z" fill="#FFB27D"/>
<path d="M165.666 354.136C166.191 358.995 166.436 362.021 166.319 362.138C166.035 362.438 165.692 362.638 165.275 362.689C161.361 363.109 150.225 366.65 140.46 366.825C132.234 367.026 124.748 365.483 116.599 362.95C115.52 362.616 113.003 361.639 112.921 360.484C112.803 359.227 112.707 357.388 112.586 355.075C112.173 347.031 111.473 333.196 108.635 317.478C108.113 314.554 107.677 311.636 107.317 308.759C104.651 287.317 106.63 267.936 114.406 260.516C115.078 259.905 119.822 261.557 124.184 263.09C128.219 264.509 132.047 264.261 135.556 263.097L139.537 265.843C144.408 269.381 149.868 274.332 152.964 282.471C155.602 289.398 158.192 302.148 160.375 315.419C161.361 321.436 162.309 327.51 163.057 333.288L163.083 333.495C163.204 334.062 163.28 334.692 163.347 335.264C163.487 336.292 163.617 337.301 163.751 338.294C164.559 344.466 165.214 349.974 165.666 354.136Z" fill="white"/>
<path d="M115.553 243.757C115.553 243.757 117.281 243.248 116.705 240.852C116.129 238.456 115.748 235.281 117.797 235.634C119.846 235.987 120.132 237.559 120.832 236.538C121.532 235.516 121.077 231.622 126.925 230.642C132.774 229.662 135.408 231.421 137.998 229.887C140.588 228.357 140.232 224.201 140.232 224.201C140.232 224.201 139.634 225.773 138.514 226.384C138.514 226.384 142.322 219.597 136.528 215.954C130.731 212.314 125.685 215.763 122.649 216.317C115.964 217.535 111.665 218.465 109.998 223.155C108.331 227.841 110.717 240.018 115.553 243.757Z" fill="#413E64"/>
<path d="M165.661 354.136C164.833 354.288 150.464 356.869 140.696 350.432C130.638 343.807 118.855 304.527 118.855 304.527C118.855 304.527 141.447 329.651 141.886 330.644C142.252 331.478 158.543 336.658 163.742 338.296C164.553 344.466 165.209 349.974 165.661 354.136Z" fill="#D1D1D1"/>
<path d="M282.739 228.079L170.984 229.666L172.571 341.421L284.326 339.834L282.739 228.079Z" fill="#CC0013"/>
<path d="M258.888 228.419L147.133 230.006L148.72 341.761L260.475 340.174L258.888 228.419Z" fill="#EA0319"/>
<path d="M161.787 264.316C161.638 253.768 168.867 245.139 179.736 244.983C190.497 244.83 197.863 253.144 198.016 263.801C198.166 274.243 190.936 282.978 180.067 283.134C169.306 283.286 161.94 274.972 161.787 264.316ZM223.436 245.215L236.116 245.034L182.73 320.396L170.051 320.578L223.436 245.215ZM186.829 263.96C186.759 258.951 183.924 254.621 179.663 254.681C175.189 254.745 172.905 259.04 172.978 264.154C173.048 269.162 175.883 273.489 180.144 273.429C184.617 273.372 186.899 268.968 186.829 263.96ZM208.147 301.811C207.998 291.263 215.227 282.634 226.096 282.478C236.857 282.325 244.223 290.64 244.376 301.296C244.525 311.739 237.296 320.473 226.427 320.629C215.666 320.781 208.3 312.467 208.147 301.811ZM233.188 301.455C233.118 296.446 230.283 292.119 226.023 292.18C221.546 292.243 219.265 296.539 219.338 301.652C219.408 306.66 222.243 310.991 226.503 310.93C230.977 310.864 233.258 306.463 233.188 301.455Z" fill="white"/>
<path d="M203.441 345.294C199.668 345.224 194.831 343.601 193.279 342.831C190.657 341.527 189.32 340.263 189.32 340.263L189.718 337.778L190.195 334.813C190.195 334.813 190.488 334.765 190.972 334.717C191.452 334.667 192.133 334.616 192.9 334.603C192.9 334.603 194.141 334.978 195.169 334.062C196.193 333.146 198.083 332.525 199.515 332.866C200.944 333.209 204.017 332.888 204.116 333.391C204.358 334.6 199.878 334.38 199.356 335.137C198.882 335.825 199.315 336.286 199.4 336.372C199.407 336.375 199.413 336.382 199.42 336.388C202.041 339.032 211.065 339.993 210.706 342.09C210.566 342.866 205.036 345.323 203.441 345.294Z" fill="#FFB27D"/>
<path d="M111.983 289.477C111.983 289.477 132.652 337.259 141.889 341.813C151.126 346.366 193.276 342.828 193.276 342.828L193.553 334.673C193.553 334.673 157.251 327.481 153.748 321.528C150.245 315.575 144.362 279.019 135.061 275.334C125.761 271.653 111.63 276.448 111.983 289.477Z" fill="white"/>
<path d="M533.584 314.136C533.584 314.136 529.432 316.968 524.815 316.5C521.388 316.153 518.012 312.981 517.882 312.771L515.148 317.522C515.148 317.522 521.394 321.308 526.75 320.271C528.391 319.952 531.051 318.323 532.251 317.102C533.578 315.759 533.584 314.136 533.584 314.136Z" fill="white"/>
<path d="M533.473 304.244L540.336 301.399C540.336 301.399 539.394 315.664 527.605 320.023C527.605 320.026 535.054 310.261 533.473 304.244Z" fill="#C5C5C5"/>
<path d="M581.627 474.767C581.627 474.767 584.624 478.162 587.57 478.095C587.57 478.095 587.965 481.808 586.899 482.794C586.899 482.794 581.853 481.872 580.637 480.026C580.637 480.029 579.619 475.6 581.627 474.767Z" fill="#EA0319"/>
<path d="M534.607 428.092C534.607 428.092 531.893 424.798 531.931 420.856C531.96 417.932 534.384 414.83 534.553 414.706L530.324 412.758C530.324 412.758 527.601 418.333 528.889 422.781C529.284 424.143 530.868 426.269 531.991 427.191C533.236 428.209 534.607 428.092 534.607 428.092Z" fill="#CDE0FB"/>
<path d="M542.965 427.238L545.898 432.826C545.898 432.826 533.759 433.125 529.168 423.49C529.165 423.487 537.998 429.036 542.965 427.238Z" fill="#CDE0FB"/>
</svg>
