<svg width="344" height="344" viewBox="0 0 344 344" fill="none" xmlns="http://www.w3.org/2000/svg">
<g clip-path="url(#clip0)">
<path d="M66.0145 57.4756L64.5933 58.8982L56.3503 56.9065L58.34 65.158L56.9188 66.5806L54.6449 56.622L45.5493 54.6302L46.9705 53.2076L54.3607 54.9148L52.6552 47.5169L54.0764 46.0943L56.0661 55.1993L66.0145 57.4756ZM48.9602 76.5393L47.8231 77.9619L34.464 68.2878L35.6009 66.8652L48.9602 76.5393ZM39.8645 86.2134L41.5699 83.9371C42.4227 82.799 42.7069 81.9454 42.7069 81.0918C42.7069 80.2382 42.1384 79.6691 41.2857 78.8155C40.433 78.2464 39.5803 77.962 39.0118 78.2465C38.1591 78.531 37.3063 79.3846 36.4536 80.5227L35.0324 82.5145L39.8645 86.2134ZM40.1487 88.7741L26.7895 79.1001L27.9264 77.6774L33.6112 81.6608L35.3167 79.3846C36.4536 77.6774 37.5906 76.8238 38.7276 76.5393C39.8645 76.2547 41.2857 76.5392 42.4226 77.3928C43.5596 78.2464 44.4123 79.3846 44.4123 80.5227C44.4123 81.6609 44.1281 83.0835 42.9911 84.7907L40.1487 88.7741ZM33.0428 101.578L32.19 103.285L18.8308 97.0257L16.5569 101.863L18.8308 103.285C21.9575 105.277 23.9471 106.7 25.3683 107.553C26.7895 108.691 27.6422 109.545 27.9264 110.114C28.2107 110.968 28.2107 111.821 27.9264 112.675C27.6422 113.244 27.358 113.529 27.0737 113.813L25.6525 113.244C25.9368 112.959 26.221 112.675 26.5052 112.106C26.7895 111.821 26.7895 111.252 26.5052 110.968C26.221 110.683 25.9368 110.114 25.3683 109.545C24.7998 108.976 23.3787 108.122 21.6732 106.7C19.6836 105.562 17.4096 103.854 14.5673 102.147L18.2623 94.1803L33.0428 101.578ZM8.02971 124.341C7.46123 126.048 7.74551 127.471 8.59822 128.893C9.45094 130.316 10.8721 131.17 12.8618 131.739C14.8515 132.308 16.5569 132.308 17.9781 131.739C19.3993 131.17 20.252 130.031 20.8205 128.04C21.1047 126.902 21.389 125.763 21.389 124.056L23.0944 124.625C23.0944 125.763 23.0944 127.186 22.5259 128.893C21.9574 131.17 20.5363 132.877 18.8308 133.73C17.1254 134.584 14.8514 134.584 12.2933 133.73C10.5879 133.161 9.45092 132.592 8.31397 131.454C7.17701 130.6 6.60859 129.462 6.32435 128.04C6.04011 126.617 6.04004 125.194 6.60852 123.772C7.17699 122.065 7.74552 120.642 8.88248 119.788L10.3037 120.926C9.16672 122.065 8.31395 123.203 8.02971 124.341ZM8.31397 161.046C10.5879 161.33 12.2934 161.045 13.4303 160.192C14.5673 159.338 15.4199 157.916 15.4199 156.208C15.7042 154.501 15.1357 153.079 13.9987 151.94C12.8618 150.802 11.4406 150.233 9.16673 149.949C6.89282 149.664 5.18734 149.949 4.05038 150.802C2.91343 151.656 2.06076 152.794 2.06076 154.786C1.77653 156.493 2.345 157.916 3.48196 159.054C4.33467 160.192 6.04006 161.046 8.31397 161.046ZM9.4509 148.242C12.0091 148.526 13.9987 149.38 15.4199 150.802C16.8411 152.225 17.4096 154.217 17.1254 156.493C16.8411 158.769 15.9884 160.761 14.283 161.899C12.5776 163.037 10.5879 163.606 7.74554 163.322C5.18739 163.037 3.1977 162.184 1.77651 160.761C0.355315 159.338 -0.21318 157.347 0.0710582 155.07C0.355297 152.794 1.20801 151.087 2.91345 149.664C4.90312 148.242 6.89276 147.957 9.4509 148.242ZM8.59822 185.515V183.808C8.59822 182.101 8.31402 180.963 7.74554 180.109C7.17706 179.256 6.32428 178.971 5.18732 178.971C4.05037 178.971 3.19769 179.54 2.91345 180.109C2.34497 180.963 2.0607 182.101 2.34493 183.524V185.515H8.59822ZM4.6189 177.264C6.32433 177.264 7.46127 177.833 8.59822 178.686C9.45094 179.825 10.0194 181.247 10.0194 183.524V185.515L16.5569 185.231V187.222L0.355315 188.076L0.0710582 183.808C0.0710582 179.54 1.49227 177.548 4.6189 177.264ZM6.32435 203.725C7.4613 203.441 8.31402 203.725 9.16673 204.01C10.0195 204.579 10.5879 205.433 11.1564 206.571C10.8721 205.148 11.1564 204.01 11.7249 203.156C12.2933 202.303 12.8618 201.734 13.9987 201.449C15.4199 201.165 16.8411 201.449 17.9781 202.303C19.115 203.156 19.9678 204.579 20.252 206.571C20.8205 208.278 20.8205 209.985 20.5363 211.408L18.8308 211.692C19.1151 210.839 19.1151 209.985 19.1151 209.132C19.1151 208.278 19.1151 207.424 18.8308 206.855C18.5466 205.433 17.9781 204.294 17.1254 203.725C16.2727 203.156 15.42 202.872 14.5673 203.156C13.7145 203.441 12.8618 204.01 12.5775 204.864C12.2933 205.717 12.2933 207.14 12.8618 208.562L13.4303 210.839L12.0091 211.123L11.4406 208.847C11.1564 207.424 10.5879 206.286 9.73516 205.717C8.88244 205.148 8.02975 204.864 7.17703 205.148C6.32431 205.433 5.75582 205.717 5.47158 206.571C5.18734 207.14 5.18734 207.993 5.47158 209.132C5.75582 209.985 6.04011 210.554 6.32435 211.123C6.60859 211.692 7.17699 212.261 8.02971 213.115L6.89277 214.253C6.04006 213.684 5.47156 212.83 5.18732 211.977C4.61884 211.123 4.33462 210.27 4.05038 209.132C3.76615 207.424 3.76615 206.002 4.05038 205.148C4.33462 204.864 5.18739 204.01 6.32435 203.725ZM20.8205 235.024L26.5052 232.748L25.084 229.618C24.5156 228.48 23.9472 227.626 23.3787 227.057C22.526 226.773 21.6732 226.488 20.8205 227.057C19.9677 227.342 19.3993 227.911 19.1151 228.764C18.8309 229.618 19.115 230.756 19.6835 231.894L20.8205 235.024ZM19.3993 235.593L18.2623 232.748C17.6938 231.61 17.1254 230.756 16.5569 230.187C15.9884 229.902 15.1357 229.902 14.283 230.187C13.4303 230.471 12.8618 231.041 12.8618 231.894C12.8618 232.748 12.8618 233.601 13.4303 235.024L14.5673 237.585L19.3993 235.593ZM13.7145 239.861L12.0091 235.593C11.1564 233.601 10.8721 231.894 11.1564 230.756C11.4406 229.618 12.0091 228.764 13.4303 228.195C14.283 227.911 15.1357 227.626 15.9884 227.911C16.8412 228.195 17.4096 228.764 17.9781 229.618C17.4096 227.057 18.2624 225.634 20.252 224.781C21.6732 224.212 22.8101 224.212 23.9471 224.781C25.0841 225.35 25.9368 226.488 26.7895 228.195L29.0634 233.601L13.7145 239.861ZM31.6216 269.168L33.0428 271.16C33.8955 272.298 34.7482 272.867 35.6009 273.151C36.4536 273.436 37.3063 273.151 38.159 272.582C39.8645 271.16 39.8645 269.452 38.159 267.176L36.7378 265.184L31.6216 269.168ZM39.8645 266.892L47.8231 266.323L49.2443 268.03L40.7172 268.599C41.0014 269.737 41.2857 270.875 41.0014 271.729C40.7172 272.582 40.1488 273.436 39.0118 274.005C37.8749 274.859 36.7378 275.143 35.3167 274.859C34.1797 274.574 32.7585 273.436 31.6216 272.013L29.0634 268.314L42.1384 258.356L43.2754 259.778L37.8748 263.762L39.8645 266.892ZM57.4873 277.988L58.9085 279.411L48.6759 289.939L52.371 293.638L54.3607 291.931C57.2031 289.654 59.1927 288.232 60.6139 287.093C62.0351 286.24 63.1721 285.671 64.0248 285.671C64.8775 285.671 65.7302 285.955 66.2987 286.524C66.5829 286.809 66.8672 287.378 67.1514 287.663L66.0145 288.801C65.7303 288.516 65.7302 287.947 65.446 287.663C65.1617 287.378 64.8775 287.378 64.309 287.378C63.7406 287.378 63.1721 287.663 62.6036 287.947C61.7509 288.232 60.614 289.37 58.9085 290.508C57.2031 291.931 54.9291 293.638 52.371 295.629L46.1178 289.37L57.4873 277.988ZM77.6682 298.475L69.9938 309.003L73.1205 311.279C74.2574 309.856 75.9628 308.433 77.9525 306.726C79.9421 305.019 81.9318 303.881 83.9215 303.027L77.6682 298.475ZM77.9525 291.361L79.3737 292.5L76.8155 295.914L85.9112 302.458L88.4693 299.044L89.8905 300.182L86.4796 305.019L85.3427 304.165C83.353 305.019 81.0791 306.442 78.8052 308.149C76.5313 309.856 74.5417 311.563 73.1205 313.555L67.1514 309.287L75.6786 297.337L73.9731 296.199L77.9525 291.361ZM115.756 325.79L118.03 320.099L114.904 318.677C113.767 318.108 112.63 318.108 111.777 318.392C110.924 318.677 110.356 319.246 110.072 320.099C109.787 320.953 109.787 321.806 110.072 322.66C110.64 323.229 111.493 324.083 112.63 324.367L115.756 325.79ZM115.188 327.497L112.345 326.359C111.208 325.79 110.071 325.79 109.503 325.79C108.935 326.074 108.366 326.644 107.798 327.497C107.513 328.351 107.513 329.204 108.082 329.773C108.65 330.342 109.503 330.912 110.64 331.481L113.198 332.619L115.188 327.497ZM114.335 334.61L110.072 332.903C108.082 332.05 106.661 331.196 106.092 330.342C105.524 329.489 105.239 328.351 105.808 326.928C106.092 326.074 106.661 325.505 107.513 324.936C108.366 324.652 109.219 324.367 110.072 324.652C107.798 323.229 107.229 321.522 108.082 319.53C108.65 318.108 109.503 317.254 110.64 316.969C111.777 316.685 113.198 316.685 114.904 317.254L120.304 319.53L114.335 334.61ZM144.749 334.041C145.317 331.765 145.033 330.058 144.464 328.92C143.896 327.497 142.475 326.643 140.769 326.359C139.064 326.074 137.643 326.359 136.506 327.213C135.369 328.066 134.516 329.773 134.232 331.765C133.948 334.041 133.947 335.749 134.516 336.887C135.084 338.309 136.506 338.878 138.211 339.447C139.917 339.732 141.338 339.448 142.475 338.594C143.612 337.74 144.464 336.318 144.749 334.041ZM131.958 331.481C132.526 328.92 133.379 326.928 135.084 325.79C136.79 324.652 138.495 324.083 141.054 324.652C143.327 325.221 145.033 326.074 146.17 327.782C147.307 329.489 147.307 331.765 147.023 334.326C146.454 336.887 145.601 338.878 143.896 340.017C142.19 341.155 140.485 341.439 137.927 341.155C135.653 340.586 133.947 339.732 133.095 338.025C131.674 336.318 131.674 334.041 131.958 331.481ZM168.909 336.318H167.203C165.498 336.318 164.361 336.318 163.508 336.887C162.656 337.456 162.371 338.309 162.371 339.447C162.371 340.586 162.656 341.439 163.224 342.008C163.793 342.577 164.93 342.862 166.635 342.862H168.625L168.909 336.318ZM160.382 339.163C160.382 337.456 161.234 336.318 162.371 335.464C163.508 334.61 165.214 334.326 167.203 334.326H169.193L169.477 327.782H171.467L170.614 344L166.351 343.715C162.087 344.285 160.097 342.577 160.382 339.163ZM189.374 334.326L191.932 339.163C192.216 339.732 192.501 340.586 193.069 341.439C193.069 340.586 193.353 340.017 193.353 338.878L194.49 333.472L189.374 334.326ZM185.679 327.782L188.521 332.619L195.059 331.765L196.196 326.359L198.186 326.074L194.206 343.146L192.501 343.431L183.689 328.066L185.679 327.782ZM220.356 328.351L218.651 322.375L215.24 323.229C214.103 323.514 212.966 324.083 212.682 324.936C212.113 325.505 212.113 326.359 212.397 327.497C212.682 328.351 213.25 329.204 214.103 329.489C214.956 329.773 216.093 329.773 217.229 329.204L220.356 328.351ZM220.925 330.058L217.798 330.911C216.377 331.196 215.524 331.765 215.24 332.334C214.671 332.903 214.671 333.757 214.956 334.61C215.24 335.464 215.808 336.033 216.377 336.318C217.23 336.602 218.082 336.318 219.503 336.033L222.062 335.179L220.925 330.058ZM224.904 336.033L220.356 337.456C218.366 338.025 216.661 338.309 215.524 337.74C214.387 337.456 213.534 336.602 213.25 335.179C212.966 334.326 212.966 333.472 213.25 332.619C213.534 331.765 214.103 331.196 215.24 330.627C212.682 330.911 211.26 330.058 210.408 328.066C210.124 326.643 210.124 325.505 210.976 324.367C211.829 323.229 212.966 322.375 214.671 322.091L220.072 320.384L224.904 336.033ZM248.496 317.539C247.643 315.547 246.506 314.124 245.085 313.555C243.664 312.986 242.243 312.986 240.537 313.84C238.832 314.693 237.979 315.831 237.41 317.254C237.126 318.677 237.41 320.384 238.263 322.375C239.116 324.367 240.253 325.79 241.674 326.359C243.095 326.928 244.516 326.928 246.222 326.074C247.927 325.221 248.78 324.083 249.349 322.66C249.633 321.237 249.348 319.53 248.496 317.539ZM236.558 322.945C235.421 320.668 235.137 318.392 235.705 316.4C236.273 314.409 237.695 312.986 239.684 312.132C241.958 310.994 243.948 310.994 245.653 311.848C247.359 312.701 249.064 314.124 250.201 316.685C251.338 318.961 251.622 321.237 251.054 323.229C250.485 325.221 249.064 326.644 247.075 327.497C245.085 328.635 243.095 328.635 241.106 327.782C239.116 326.928 237.695 325.505 236.558 322.945ZM260.434 300.182L262.139 299.044L270.382 311.279L274.646 308.433L275.498 309.856L265.266 316.685L264.413 315.262L268.677 312.417L260.434 300.182ZM285.731 278.557L286.868 277.135L292.553 282.256L298.238 275.712L292.553 270.591L293.69 269.168L305.912 279.98L304.775 281.403L299.659 276.85L293.974 283.395L299.09 287.947L297.953 289.37L285.731 278.557ZM322.966 254.372L322.114 255.795L314.155 251.242C312.734 250.389 311.313 249.535 310.176 248.682L317.282 263.477L316.145 265.184L301.933 256.933L302.785 255.51L310.46 260.063C311.881 260.916 313.018 261.77 314.439 262.624L307.333 247.828L308.47 246.121L322.966 254.372ZM326.661 238.438C325.809 238.154 324.956 237.3 324.672 236.447C324.388 235.593 324.388 234.455 324.672 233.317C324.103 234.455 323.251 235.309 322.398 235.593C321.545 235.878 320.692 235.878 319.555 235.593C318.134 235.024 317.282 234.17 316.997 232.748C316.713 231.325 316.713 229.618 317.566 227.911C318.419 226.204 319.271 224.781 320.124 223.927L321.829 224.496C321.261 225.065 320.692 225.634 320.124 226.488C319.555 227.057 319.271 227.911 318.987 228.48C318.419 229.902 318.134 231.041 318.419 231.894C318.703 232.748 319.271 233.601 320.124 233.886C320.977 234.17 321.829 234.17 322.682 233.601C323.535 233.032 324.103 231.894 324.672 230.471L325.524 228.195L326.946 228.764L326.093 231.04C325.525 232.463 325.24 233.601 325.524 234.739C325.809 235.593 326.377 236.447 327.23 236.731C328.083 237.016 328.651 237.016 329.22 236.731C329.788 236.447 330.357 235.593 330.925 234.739C331.209 233.886 331.493 233.317 331.493 232.463C331.493 231.894 331.493 231.041 331.209 229.902L332.63 229.618C332.915 230.471 332.915 231.61 332.915 232.463C332.915 233.317 332.63 234.455 332.346 235.308C331.778 236.731 330.925 237.869 329.788 238.438C328.651 238.723 327.798 238.723 326.661 238.438ZM330.072 210.27L335.473 209.701C336.041 209.701 336.894 209.416 338.031 209.416C337.462 209.132 336.61 208.562 336.041 208.278L331.493 205.148L330.072 210.27ZM322.682 211.123L328.083 210.27L329.788 204.01L325.24 200.88L325.809 198.888L340.305 209.132L340.021 210.554L322.398 212.83L322.682 211.123ZM343.147 190.637H341.442L341.726 183.524L327.23 182.67V180.678L343.431 181.532L343.147 190.637ZM334.336 163.037L339.168 160.761C339.736 160.476 340.589 160.192 341.442 159.907C340.589 159.907 340.021 159.623 339.168 159.338L334.052 157.916L334.336 163.037ZM327.798 166.167L332.915 163.606L332.346 157.062L326.946 155.639L326.661 153.648L343.716 158.485L344 160.192L328.367 168.159L327.798 166.167ZM322.398 132.877L335.189 124.056C334.052 124.341 332.915 124.91 331.209 125.194L320.977 127.755L320.692 126.048L336.61 122.065L337.178 124.91L325.24 133.161L339.452 135.153L340.021 137.998L324.103 141.982L323.535 140.275L333.767 137.714C334.904 137.429 336.326 137.145 337.747 136.86L322.398 134.868V132.877ZM320.408 110.399L322.114 109.83L324.103 114.951L322.398 115.52L320.408 110.399ZM310.46 101.009L309.607 99.3019L322.398 92.4731L319.84 87.9206L321.261 87.067L326.946 97.8792L325.524 98.7328L322.966 94.1803L310.46 101.009ZM300.796 84.7907L295.395 77.3928L308.47 67.4342L313.871 74.8321L312.449 75.9702L308.186 70.2795L303.922 73.4094L307.902 78.8155L306.48 79.9537L302.501 74.5475L297.669 78.2465L301.933 83.9371L300.796 84.7907ZM286.3 66.2961L284.878 64.8734L290.279 59.4673L284.026 53.4921L278.625 58.8982L277.204 57.4756L288.573 45.8097L289.995 47.2324L285.163 52.0694L291.416 58.0447L296.248 53.2076L297.669 54.6302L286.3 66.2961ZM264.982 37.2738L266.403 38.4119C267.824 39.2655 268.961 39.8346 269.814 39.8346C270.666 39.8346 271.519 39.2655 272.372 38.4119C272.94 37.5583 273.225 36.7047 272.94 35.8511C272.656 34.9975 271.803 34.1439 270.666 33.2903L268.961 32.1522L264.982 37.2738ZM273.793 39.2655C272.94 40.6881 271.519 41.2572 270.098 41.2572C268.677 41.2572 266.971 40.6882 265.266 39.55L263.845 38.4119L260.15 43.5335L258.728 42.3954L268.392 29.0223L271.803 31.5831C274.93 34.4284 275.783 36.7047 273.793 39.2655ZM246.79 35.282L238.832 31.014L246.506 16.5029L254.465 20.7709L253.612 22.1935L247.359 18.7791L244.801 23.3317L250.77 26.4615L249.917 27.8842L243.948 24.7543L241.106 30.1604L247.359 33.5748L246.79 35.282ZM222.346 24.7543L220.64 24.1853L225.472 10.2432L220.64 8.53598L221.209 6.82877L232.863 10.8122L232.294 12.5194L227.462 10.8122L222.346 24.7543ZM203.586 19.3482L201.596 19.0637L202.733 11.3813L194.206 10.2432L193.069 17.9255L191.08 17.641L193.353 1.42266L195.343 1.70717L194.206 8.53598L202.733 9.67409L203.87 2.84533L205.86 3.12983L203.586 19.3482ZM126.557 17.641C125.705 18.2101 124.568 17.9256 123.999 17.072C123.431 16.2184 123.715 15.0802 124.568 14.5111C125.42 13.9421 126.557 14.2266 127.126 15.0802C127.694 15.9338 127.41 17.072 126.557 17.641ZM93.3013 31.5831C92.4486 32.1522 91.3117 31.8676 90.7432 31.014C90.1747 30.1604 90.459 29.0223 91.3117 28.4533C92.1644 27.8842 93.3014 28.1687 93.8699 29.0223C94.4383 29.5914 94.1541 31.014 93.3013 31.5831ZM163.793 0H165.498V9.10504C165.498 10.8122 165.498 12.2349 165.214 13.6575L174.309 0H176.299V16.5029H174.594V7.39782C174.594 5.97516 174.594 4.26797 174.878 2.56078L165.782 16.2184H163.793V0Z" fill="#141624"/>
<g clip-path="url(#clip1)">
<path fill-rule="evenodd" clip-rule="evenodd" d="M183.385 85C157.174 95.784 106.695 130.892 117.491 184.213C118.315 188.283 119.471 191.817 120.916 194.861C131.536 220.024 159.43 234.016 186.466 226.55C213.011 219.22 229.652 193.71 226.652 167.185C226.679 167.157 226.705 167.129 226.732 167.101C225.155 150.536 218.269 137.235 212.372 127.734C206.475 118.232 203.567 114.616 202.85 113.996C202.535 116.81 200.385 122.86 194.303 124.539C186.7 126.639 181.429 122.366 179.119 114.002C176.809 105.638 179.19 93.5234 183.385 85Z" fill="#EA0319"/>
<path fill-rule="evenodd" clip-rule="evenodd" d="M156.388 176.751C153.935 174.295 152.418 170.904 152.418 167.159C152.418 159.664 158.494 153.588 165.989 153.588C168.301 153.588 170.479 154.167 172.384 155.187C174.291 154.165 176.47 153.586 178.784 153.586C186.279 153.586 192.355 159.662 192.355 167.157C192.355 171.04 190.724 174.543 188.109 177.016L173.088 192.037C172.697 192.428 172.064 192.428 171.674 192.037L156.388 176.751L156.388 176.751Z" fill="white"/>
</g>
</g>
<defs>
<clipPath id="clip0">
<rect width="344" height="344" fill="white"/>
</clipPath>
<clipPath id="clip1">
<rect width="111" height="144" fill="white" transform="translate(116 85)"/>
</clipPath>
</defs>
</svg>
