<svg width="40" height="40" viewBox="0 0 40 40" fill="none" xmlns="http://www.w3.org/2000/svg">
<path d="M7.34835 7.33679C7.38849 6.31698 7.76848 3.66335 10.5034 2.22173C13.2249 0.78546 15.545 1.37011 16.6208 1.64242C16.8241 1.69314 16.9713 1.73319 17.0168 1.73319C17.0971 1.73319 17.2336 1.68246 17.4021 1.60771C17.6189 1.50894 17.8517 1.38079 18.0872 1.24464C18.9756 0.734736 19.7999 0.350306 20.6776 0.150082C21.5687 -0.0528116 22.5053 -0.0608205 23.5971 0.192797C26.2116 0.793469 27.4319 2.4273 27.9564 3.12942C28.0045 3.19349 28.0473 3.25222 28.0714 3.28159C28.224 3.47647 28.3176 3.63398 28.3926 3.76746C28.4595 3.88226 28.4969 3.94633 28.5745 3.94633C28.628 3.94633 28.6789 3.94366 28.7431 3.94099C29.6958 3.89027 32.9418 3.72208 35.0157 6.51187C36.5491 8.57551 36.5839 10.1186 36.6026 11.0476C36.6106 11.3413 36.6133 11.5468 36.6347 11.5682C36.6748 11.6136 36.7926 11.707 36.9424 11.8271C37.8416 12.5399 39.7763 14.0777 39.9824 17.38C40.1777 20.5489 38.6952 22.2842 38.1145 22.9649C38.053 23.037 38.0155 22.8288 38.0155 22.9543C38.0155 22.997 38.0396 22.981 38.0771 23.0851C38.3928 23.9714 39.3187 26.5743 37.9861 29.1505C36.8113 31.4171 34.8471 32.3514 33.7981 32.8507C33.5171 32.9841 33.3191 33.0776 33.3057 33.0909C33.2763 33.1283 33.196 33.3125 33.0863 33.5688C32.6153 34.6527 31.6894 36.7937 29.6128 37.8696C28.5772 38.4035 27.5416 38.6625 26.6184 38.764C25.2054 38.9161 24.0387 38.6892 23.5409 38.5077C23.2305 38.3955 23.0111 38.2914 22.8452 38.2113C22.7756 38.1766 22.9816 37.9524 22.8612 38.0565L22.8345 38.0779C22.5133 38.3688 20.707 40 17.7474 40C14.9589 40 13.9501 39.0309 13.0964 38.2087C13.0108 38.1259 12.9278 38.0458 12.8315 37.9577C12.4917 37.6454 12.2481 37.3757 12.0528 37.1622C11.82 36.9032 11.6808 36.751 11.547 36.7243C11.5096 36.719 11.4239 36.7083 11.3008 36.6923C10.1876 36.5561 6.61244 36.1157 5.15134 33.7744C3.92304 31.8042 3.80262 29.7031 3.74643 28.694C3.73305 28.4564 3.72502 28.2989 3.72234 28.2989C3.70093 28.2428 3.62333 28.2642 3.44136 28.1334C2.40039 27.3859 0 25.664 0 22.6339C0 19.9082 1.03562 18.2423 1.54674 17.4201C1.65913 17.2359 1.75547 17.2679 1.74476 17.1932C1.74476 17.1851 1.72871 17.1184 1.70998 17.0276C1.53871 16.2187 0.960691 13.5117 2.12208 10.8928C3.21657 8.42868 6.25386 7.57172 7.34835 7.33679ZM20.0568 16.6512C21.9594 16.6512 23.5035 18.1916 23.5035 20.0897C23.5035 21.9905 21.9594 23.5309 20.0568 23.5309C18.1514 23.5309 16.6074 21.9905 16.6074 20.0897C16.6074 18.1916 18.1514 16.6512 20.0568 16.6512ZM22.7007 20.0897C22.7007 18.6321 21.5179 17.4521 20.0568 17.4521C18.5957 17.4521 17.4102 18.6321 17.4102 20.0897C17.4102 21.5474 18.5957 22.73 20.0568 22.73C21.5179 22.73 22.7007 21.5474 22.7007 20.0897Z" fill="#EA0319"/>
<path d="M16 24H14.572L12.612 21.354L10.638 24H9.21L11.898 20.402L9.364 17H10.806L12.612 19.436L14.418 17H15.846L13.326 20.388L16 24ZM22.2111 17H23.1911V24H21.9871V19.086L18.1091 24H17.1291V17H18.3331V21.914L22.2111 17ZM30.2531 17V18.176H27.8731V24H26.6551V18.176H24.2611V17H30.2531Z" fill="white"/>
</svg>
