<svg width="50" height="50" viewBox="0 0 50 50" fill="none" xmlns="http://www.w3.org/2000/svg">
<circle cx="24.6445" cy="24.6447" r="17.4264" transform="rotate(45 24.6445 24.6447)" fill="#FF3737"/>
<path d="M24.6445 24.6445L36.9669 36.9669L26.7659 47.1679C25.5943 48.3394 23.6948 48.3394 22.5232 47.1679L12.3222 36.9669L24.6445 24.6445Z" fill="#FF3737"/>
<circle cx="24.6443" cy="24.6443" r="12.9411" stroke="white" stroke-width="2"/>
<path fill-rule="evenodd" clip-rule="evenodd" d="M20 26.7222C20 29.0556 21.6071 30.5333 22.3304 31C22.25 30.9222 22.0893 30.4556 22.4911 29.2111C22.8928 27.8889 24.0178 26.0222 24.5 25.2444C24.9821 26.0222 26.1071 27.8889 26.5089 29.2111C26.9107 30.5333 26.8304 30.9222 26.6696 31C27.4732 30.5333 29 29.0556 29 26.7222C29 24.3889 25.9464 19.2556 24.4197 17C23.0536 19.2556 20 24.3111 20 26.7222Z" fill="white"/>
</svg>
