    <svg width="17" height="15" viewBox="0 0 17 15" fill="none"
                                        xmlns="http://www.w3.org/2000/svg">
                                        <mask id="path-22-inside-1"  fill="white">
                                            <path fill-rule="evenodd" clip-rule="evenodd"
                                                d="M1.58848 9.00856C1.56412 8.98542 1.53994 8.96197 1.51596 8.93822C-0.34907 7.09142 -0.34907 4.09715 1.51596 2.25034C3.38092 0.403596 6.40459 0.403532 8.26963 2.25015C10.1347 0.403532 13.1583 0.403596 15.0233 2.25034C16.888 4.09684 16.8883 7.09041 15.0242 8.93729L15.0245 8.9375L9.69173 14.2181C8.90685 14.9953 7.63432 14.9953 6.84945 14.2181L1.58848 9.00856Z" />
                                        </mask>
                                        <path
                                            d="M1.58848 9.00856L2.5032 8.08482L2.49358 8.07529L2.48376 8.06596L1.58848 9.00856ZM1.51596 8.93822L0.601244 9.86196L0.601245 9.86197L1.51596 8.93822ZM1.51596 2.25034L0.601244 1.3266L0.601244 1.3266L1.51596 2.25034ZM8.26963 2.25015L7.35497 3.17394L8.26963 4.07957L9.1843 3.17394L8.26963 2.25015ZM15.0233 2.25034L14.1086 3.17408L15.0233 2.25034ZM15.0242 8.93729L14.1093 8.0138L13.1773 8.93721L14.1092 9.8607L15.0242 8.93729ZM15.0245 8.9375L15.9392 9.86124L16.8717 8.93784L15.9395 8.01409L15.0245 8.9375ZM9.69173 14.2181L10.6064 15.1419L10.6064 15.1419L9.69173 14.2181ZM6.84945 14.2181L7.76417 13.2944H7.76417L6.84945 14.2181ZM2.48376 8.06596C2.46592 8.04902 2.44823 8.03187 2.43067 8.01448L0.601245 9.86197C0.63166 9.89208 0.662318 9.92181 0.693209 9.95115L2.48376 8.06596ZM2.43067 8.01448C1.07936 6.67637 1.07936 4.51219 2.43067 3.17408L0.601244 1.3266C-1.7775 3.6821 -1.7775 7.50646 0.601244 9.86196L2.43067 8.01448ZM2.43067 3.17408C3.78903 1.829 5.99656 1.82895 7.35497 3.17394L9.1843 1.32636C6.81262 -1.02189 2.97282 -1.02181 0.601244 1.3266L2.43067 3.17408ZM9.1843 3.17394C10.5427 1.82895 12.7502 1.829 14.1086 3.17408L15.938 1.3266C13.5664 -1.02181 9.72665 -1.02189 7.35497 1.32636L9.1843 3.17394ZM14.1086 3.17408C15.4597 4.51197 15.4599 6.67564 14.1093 8.0138L15.9392 9.86078C18.3168 7.50517 18.3164 3.68171 15.938 1.3266L14.1086 3.17408ZM14.1092 9.8607L14.1094 9.86091L15.9395 8.01409L15.9393 8.01388L14.1092 9.8607ZM14.1097 8.01376L8.77701 13.2944L10.6064 15.1419L15.9392 9.86124L14.1097 8.01376ZM8.77701 13.2944C8.49877 13.5699 8.04241 13.5699 7.76417 13.2944L5.93474 15.1419C7.22624 16.4208 9.31494 16.4208 10.6064 15.1419L8.77701 13.2944ZM7.76417 13.2944L2.5032 8.08482L0.673768 9.9323L5.93474 15.1419L7.76417 13.2944Z"
                                            fill="#E30016" mask="url(#path-22-inside-1)" />
                                    </svg>