<svg width="145" height="61" viewBox="0 0 145 61" fill="none" xmlns="http://www.w3.org/2000/svg">
<path fill-rule="evenodd" clip-rule="evenodd" d="M28.6342 0C17.4966 4.58251 -3.95404 19.5011 0.633722 42.1595C0.984462 43.8917 1.47656 45.396 2.0922 46.6908C6.60786 57.3782 18.4577 63.3194 29.943 60.1478C41.2224 57.0331 48.2934 46.1944 47.0198 34.9236C47.0313 34.9117 47.0428 34.8998 47.0543 34.8878C46.3839 27.8485 43.4579 22.1965 40.952 18.1591C38.4461 14.1216 37.2104 12.585 36.9057 12.3214C36.772 13.5175 35.8585 16.0881 33.274 16.8018C30.0433 17.6939 27.8032 15.8783 26.8217 12.324C25.8402 8.76982 26.8519 3.62193 28.6342 0Z" fill="#EA0319"/>
<path fill-rule="evenodd" clip-rule="evenodd" d="M17.1611 38.9874C16.1179 37.9439 15.4727 36.5024 15.4727 34.9103C15.4727 31.7254 18.0545 29.1436 21.2394 29.1436C22.2228 29.1436 23.1487 29.3897 23.9588 29.8238C24.769 29.3897 25.6949 29.1436 26.6783 29.1436C29.8632 29.1436 32.445 31.7254 32.445 34.9103C32.445 36.5609 31.7516 38.0495 30.6401 39.1007L24.5451 45.1957C24.2199 45.5209 23.6927 45.5209 23.3675 45.1957L17.1601 38.9884L17.1611 38.9874Z" fill="white"/>
<path d="M65.7322 44.3691C64.4559 44.3691 63.3691 44.0894 62.4719 43.53C61.5873 42.9705 60.9681 42.2043 60.6143 41.2314L62.4908 40.1733C63.0216 41.6084 64.121 42.3259 65.789 42.3259C66.6104 42.3259 67.2233 42.1739 67.6277 41.8699C68.0447 41.5537 68.2532 41.1463 68.2532 40.6476C68.2532 40.1247 68.0321 39.7294 67.5898 39.4619C67.1475 39.1821 66.364 38.8781 65.2393 38.5497C64.6075 38.3673 64.0957 38.197 63.704 38.0389C63.3122 37.8808 62.8952 37.6619 62.4529 37.3822C62.0233 37.0903 61.701 36.7315 61.4862 36.3059C61.2714 35.8802 61.164 35.3816 61.164 34.81C61.164 33.6789 61.581 32.7851 62.415 32.1283C63.249 31.4594 64.2537 31.125 65.4289 31.125C66.4904 31.125 67.4192 31.3743 68.2153 31.8729C69.0114 32.3716 69.6243 33.0587 70.054 33.9343L68.2153 34.9559C67.6593 33.7641 66.7305 33.1682 65.4289 33.1682C64.797 33.1682 64.2916 33.3141 63.9125 33.606C63.5334 33.8857 63.3438 34.2688 63.3438 34.7553C63.3438 35.2296 63.5334 35.6066 63.9125 35.8863C64.3042 36.1539 65.0056 36.4397 66.0165 36.7437C66.522 36.9018 66.8884 37.0234 67.1159 37.1086C67.356 37.1815 67.6846 37.3031 68.1016 37.4734C68.5312 37.6437 68.8535 37.8139 69.0683 37.9842C69.2831 38.1545 69.5106 38.3673 69.7507 38.6227C70.0034 38.8781 70.1803 39.17 70.2814 39.4983C70.3825 39.8267 70.4331 40.1976 70.4331 40.6111C70.4331 41.7665 69.9971 42.6847 69.1252 43.3658C68.2659 44.0347 67.1349 44.3691 65.7322 44.3691Z" fill="#161B3F"/>
<path d="M81.0328 31.3621H83.2126V44.132H81.0328V38.6045H75.3462V44.132H73.1663V31.3621H75.3462V36.5978H81.0328V31.3621Z" fill="#161B3F"/>
<path d="M86.8126 31.3621H88.9925V44.132H86.8126V31.3621Z" fill="#161B3F"/>
<path d="M100.458 42.1253H105.86V44.132H98.2783V31.3621H100.458V42.1253Z" fill="#161B3F"/>
<path d="M118.663 42.4536C117.336 43.7306 115.713 44.3691 113.792 44.3691C111.871 44.3691 110.241 43.7306 108.901 42.4536C107.575 41.1645 106.911 39.5956 106.911 37.747C106.911 35.8985 107.575 34.3357 108.901 33.0587C110.241 31.7696 111.871 31.125 113.792 31.125C115.713 31.125 117.336 31.7696 118.663 33.0587C120.003 34.3357 120.673 35.8985 120.673 37.747C120.673 39.5956 120.003 41.1645 118.663 42.4536ZM110.437 41.0307C111.347 41.8942 112.465 42.3259 113.792 42.3259C115.119 42.3259 116.231 41.8942 117.128 41.0307C118.038 40.1551 118.493 39.0605 118.493 37.747C118.493 36.4336 118.038 35.3451 117.128 34.4816C116.231 33.606 115.119 33.1682 113.792 33.1682C112.465 33.1682 111.347 33.606 110.437 34.4816C109.54 35.3451 109.091 36.4336 109.091 37.747C109.091 39.0605 109.54 40.1551 110.437 41.0307Z" fill="#161B3F"/>
<path d="M126.409 44.132L121.803 31.3621H124.191L127.717 41.5962L131.261 31.3621H133.631L129.025 44.132H126.409Z" fill="#161B3F"/>
<path d="M138.176 42.1253H144.052V44.132H135.996V31.3621H143.958V33.3688H138.176V36.689H143.484V38.6774H138.176V42.1253Z" fill="#161B3F"/>
</svg>
