<svg width="19" height="23" viewBox="0 0 19 23" fill="none" xmlns="http://www.w3.org/2000/svg">
<mask id="path-1-inside-1" fill="white">
<path fill-rule="evenodd" clip-rule="evenodd" d="M11.403 10.7648C10.8733 11.1636 10.2144 11.4 9.50026 11.4C8.78614 11.4 8.12723 11.1636 7.5975 10.7648C6.25389 9.8657 5.30673 6.75681 5.10642 5.02956C5.0802 4.83455 5.06667 4.63552 5.06667 4.43333C5.06667 1.98487 7.05154 0 9.5 0C11.9485 0 13.9333 1.98486 13.9333 4.43331L13.9336 4.43334C13.9336 4.46133 13.9332 4.49017 13.9325 4.51983C13.9294 4.68175 13.9176 4.84156 13.8976 4.99879C13.7051 6.71962 12.7547 9.86034 11.403 10.7648ZM3.16667 22.1667C1.41829 22.1667 0.000843841 20.1168 0 18.3682V18.3667V17.1016V17.1013C0 14.6528 4.25329 12.668 9.5 12.668C14.7467 12.668 19 14.6528 19 17.1013C19 17.1014 19 17.1015 19 17.1016H19.0001V18.3682H19C18.9992 20.1168 17.5817 22.1667 15.8333 22.1667H3.16667Z"/>
</mask>
<path d="M11.403 10.7648L10.5688 9.51821L10.5342 9.54139L10.5009 9.56646L11.403 10.7648ZM7.5975 10.7648L8.49967 9.56646L8.46637 9.54139L8.43173 9.51821L7.5975 10.7648ZM5.10642 5.02956L6.59643 4.85676L6.59486 4.84323L6.59304 4.82972L5.10642 5.02956ZM13.9333 4.43331L12.4333 4.43331L12.4333 5.73425L13.7212 5.91823L13.9333 4.43331ZM13.9336 4.43334H15.4336V3.1324L14.1457 2.94842L13.9336 4.43334ZM13.9325 4.51983L12.4329 4.48322L12.4328 4.49113L13.9325 4.51983ZM13.8976 4.99879L12.4096 4.80936L12.4082 4.82067L12.4069 4.832L13.8976 4.99879ZM0 18.3682H-1.5L-1.5 18.369L0 18.3682ZM19 17.1016H17.5V18.6016H19V17.1016ZM19.0001 17.1016H20.5001V15.6016H19.0001V17.1016ZM19.0001 18.3682V19.8682H20.5001V18.3682H19.0001ZM19 18.3682V16.8682H17.5007L17.5 18.3675L19 18.3682ZM9.50026 12.9C10.5509 12.9 11.5244 12.551 12.3052 11.9632L10.5009 9.56646C10.2222 9.77626 9.87783 9.90001 9.50026 9.90001V12.9ZM6.69533 11.9632C7.47611 12.551 8.44958 12.9 9.50026 12.9V9.90001C9.12269 9.90001 8.77835 9.77626 8.49967 9.56646L6.69533 11.9632ZM3.6164 5.20236C3.73205 6.19956 4.05152 7.53293 4.52515 8.75125C4.76351 9.36438 5.05452 9.98387 5.40123 10.533C5.73842 11.0671 6.18342 11.6234 6.76328 12.0115L8.43173 9.51821C8.33978 9.45668 8.16253 9.28719 7.93798 8.93151C7.72294 8.59089 7.51271 8.15662 7.32129 7.66423C6.93536 6.67151 6.6811 5.58681 6.59643 4.85676L3.6164 5.20236ZM3.56667 4.43333C3.56667 4.70254 3.58469 4.96833 3.61979 5.2294L6.59304 4.82972C6.57571 4.70077 6.56667 4.5685 6.56667 4.43333H3.56667ZM9.5 -1.5C6.22311 -1.5 3.56667 1.15644 3.56667 4.43333H6.56667C6.56667 2.8133 7.87996 1.5 9.5 1.5V-1.5ZM15.4333 4.4333C15.4333 1.15642 12.7769 -1.5 9.5 -1.5V1.5C11.12 1.5 12.4333 2.81329 12.4333 4.43331L15.4333 4.4333ZM14.1457 2.94842L14.1455 2.94838L13.7212 5.91823L13.7215 5.91827L14.1457 2.94842ZM15.4321 4.55643C15.4331 4.51534 15.4336 4.47428 15.4336 4.43334H12.4336C12.4336 4.44839 12.4334 4.46501 12.433 4.48322L15.4321 4.55643ZM15.3856 5.18821C15.4124 4.97779 15.4281 4.76433 15.4322 4.54852L12.4328 4.49113C12.4307 4.59918 12.4229 4.70533 12.4096 4.80936L15.3856 5.18821ZM12.2372 12.0115C12.8204 11.6212 13.2673 11.0607 13.6056 10.5231C13.9535 9.97007 14.2453 9.34615 14.484 8.72905C14.9581 7.50332 15.2768 6.16237 15.3883 5.16557L12.4069 4.832C12.3259 5.55604 12.0731 6.64587 11.686 7.64682C11.494 8.14307 11.2828 8.58148 11.0663 8.92553C10.8402 9.28493 10.6615 9.45618 10.5688 9.51821L12.2372 12.0115ZM-1.5 18.369C-1.4994 19.616 -1.00801 20.8847 -0.252548 21.8485C0.498435 22.8066 1.68298 23.6667 3.16667 23.6667V20.6667C2.90197 20.6667 2.50361 20.5018 2.10856 19.9978C1.718 19.4995 1.50024 18.8691 1.5 18.3675L-1.5 18.369ZM-1.5 18.3667V18.3682H1.5V18.3667H-1.5ZM-1.5 17.1016V18.3667H1.5V17.1016H-1.5ZM-1.5 17.1013V17.1016H1.5V17.1013H-1.5ZM9.5 11.168C6.708 11.168 4.10714 11.693 2.14816 12.6072C0.310969 13.4645 -1.5 14.9481 -1.5 17.1013H1.5C1.5 16.806 1.81568 16.0729 3.41681 15.3257C4.89615 14.6354 7.04529 14.168 9.5 14.168V11.168ZM20.5 17.1013C20.5 14.9481 18.689 13.4645 16.8518 12.6072C14.8929 11.693 12.292 11.168 9.5 11.168V14.168C11.9547 14.168 14.1039 14.6354 15.5832 15.3257C17.1843 16.0729 17.5 16.806 17.5 17.1013H20.5ZM20.5 17.1016C20.5 17.1016 20.5 17.1016 20.5 17.1016C20.5 17.1016 20.5 17.1016 20.5 17.1016V17.1016C20.5 17.1016 20.5 17.1016 20.5 17.1016C20.5 17.1016 20.5 17.1016 20.5 17.1016C20.5 17.1016 20.5 17.1016 20.5 17.1016V17.1015V17.1015C20.5 17.1015 20.5 17.1015 20.5 17.1015C20.5 17.1015 20.5 17.1015 20.5 17.1015C20.5 17.1015 20.5 17.1015 20.5 17.1015V17.1015C20.5 17.1015 20.5 17.1015 20.5 17.1015C20.5 17.1015 20.5 17.1015 20.5 17.1015C20.5 17.1015 20.5 17.1015 20.5 17.1015V17.1015V17.1015C20.5 17.1015 20.5 17.1015 20.5 17.1015C20.5 17.1015 20.5 17.1015 20.5 17.1015C20.5 17.1015 20.5 17.1015 20.5 17.1015V17.1015C20.5 17.1015 20.5 17.1015 20.5 17.1015C20.5 17.1015 20.5 17.1015 20.5 17.1015C20.5 17.1015 20.5 17.1015 20.5 17.1015V17.1015V17.1015C20.5 17.1015 20.5 17.1015 20.5 17.1015C20.5 17.1015 20.5 17.1015 20.5 17.1015V17.1015V17.1015C20.5 17.1015 20.5 17.1015 20.5 17.1015C20.5 17.1015 20.5 17.1015 20.5 17.1015C20.5 17.1015 20.5 17.1015 20.5 17.1015V17.1015C20.5 17.1015 20.5 17.1015 20.5 17.1015C20.5 17.1015 20.5 17.1015 20.5 17.1015C20.5 17.1015 20.5 17.1015 20.5 17.1015V17.1015C20.5 17.1015 20.5 17.1015 20.5 17.1015C20.5 17.1015 20.5 17.1015 20.5 17.1015C20.5 17.1015 20.5 17.1015 20.5 17.1015V17.1015C20.5 17.1015 20.5 17.1015 20.5 17.1015C20.5 17.1015 20.5 17.1015 20.5 17.1015C20.5 17.1015 20.5 17.1015 20.5 17.1015V17.1015C20.5 17.1015 20.5 17.1015 20.5 17.1015C20.5 17.1015 20.5 17.1015 20.5 17.1015C20.5 17.1015 20.5 17.1015 20.5 17.1015V17.1015V17.1015C20.5 17.1015 20.5 17.1015 20.5 17.1015C20.5 17.1015 20.5 17.1015 20.5 17.1015V17.1015V17.1015C20.5 17.1015 20.5 17.1015 20.5 17.1015C20.5 17.1015 20.5 17.1015 20.5 17.1015V17.1015V17.1014C20.5 17.1014 20.5 17.1014 20.5 17.1014C20.5 17.1014 20.5 17.1014 20.5 17.1014V17.1014V17.1014C20.5 17.1014 20.5 17.1014 20.5 17.1014C20.5 17.1014 20.5 17.1014 20.5 17.1014V17.1014V17.1014C20.5 17.1014 20.5 17.1014 20.5 17.1014C20.5 17.1014 20.5 17.1014 20.5 17.1014V17.1014V17.1014C20.5 17.1014 20.5 17.1014 20.5 17.1014C20.5 17.1014 20.5 17.1014 20.5 17.1014V17.1014V17.1014C20.5 17.1014 20.5 17.1014 20.5 17.1014C20.5 17.1014 20.5 17.1014 20.5 17.1014V17.1014V17.1014C20.5 17.1014 20.5 17.1014 20.5 17.1014C20.5 17.1014 20.5 17.1014 20.5 17.1014V17.1014V17.1014C20.5 17.1014 20.5 17.1014 20.5 17.1014C20.5 17.1014 20.5 17.1014 20.5 17.1014V17.1014V17.1014C20.5 17.1014 20.5 17.1014 20.5 17.1014C20.5 17.1014 20.5 17.1014 20.5 17.1014C20.5 17.1014 20.5 17.1014 20.5 17.1014V17.1014C20.5 17.1014 20.5 17.1014 20.5 17.1014C20.5 17.1014 20.5 17.1014 20.5 17.1014C20.5 17.1014 20.5 17.1014 20.5 17.1014V17.1014C20.5 17.1014 20.5 17.1014 20.5 17.1014C20.5 17.1014 20.5 17.1014 20.5 17.1014C20.5 17.1014 20.5 17.1014 20.5 17.1014V17.1014C20.5 17.1014 20.5 17.1014 20.5 17.1014C20.5 17.1014 20.5 17.1014 20.5 17.1014C20.5 17.1014 20.5 17.1014 20.5 17.1014V17.1014C20.5 17.1014 20.5 17.1014 20.5 17.1014C20.5 17.1014 20.5 17.1014 20.5 17.1014C20.5 17.1014 20.5 17.1014 20.5 17.1014V17.1014V17.1014C20.5 17.1014 20.5 17.1014 20.5 17.1014C20.5 17.1014 20.5 17.1014 20.5 17.1014V17.1014V17.1013C20.5 17.1013 20.5 17.1013 20.5 17.1013C20.5 17.1013 20.5 17.1013 20.5 17.1013C20.5 17.1013 20.5 17.1013 20.5 17.1013V17.1013C20.5 17.1013 20.5 17.1013 20.5 17.1013C20.5 17.1013 20.5 17.1013 20.5 17.1013C20.5 17.1013 20.5 17.1013 20.5 17.1013V17.1013V17.1013C20.5 17.1013 20.5 17.1013 20.5 17.1013C20.5 17.1013 20.5 17.1013 20.5 17.1013C20.5 17.1013 20.5 17.1013 20.5 17.1013V17.1013C20.5 17.1013 20.5 17.1013 20.5 17.1013C20.5 17.1013 20.5 17.1013 20.5 17.1013C20.5 17.1013 20.5 17.1013 20.5 17.1013V17.1013V17.1013C20.5 17.1013 20.5 17.1013 20.5 17.1013C20.5 17.1013 20.5 17.1013 20.5 17.1013C20.5 17.1013 20.5 17.1013 20.5 17.1013V17.1013C20.5 17.1013 20.5 17.1013 20.5 17.1013C20.5 17.1013 20.5 17.1013 20.5 17.1013H17.5C17.5 17.1013 17.5 17.1013 17.5 17.1013C17.5 17.1013 17.5 17.1013 17.5 17.1013V17.1013C17.5 17.1013 17.5 17.1013 17.5 17.1013C17.5 17.1013 17.5 17.1013 17.5 17.1013C17.5 17.1013 17.5 17.1013 17.5 17.1013V17.1013V17.1013C17.5 17.1013 17.5 17.1013 17.5 17.1013C17.5 17.1013 17.5 17.1013 17.5 17.1013C17.5 17.1013 17.5 17.1013 17.5 17.1013V17.1013C17.5 17.1013 17.5 17.1013 17.5 17.1013C17.5 17.1013 17.5 17.1013 17.5 17.1013C17.5 17.1013 17.5 17.1013 17.5 17.1013V17.1013V17.1013C17.5 17.1013 17.5 17.1013 17.5 17.1013C17.5 17.1013 17.5 17.1013 17.5 17.1013C17.5 17.1013 17.5 17.1013 17.5 17.1013V17.1013C17.5 17.1013 17.5 17.1013 17.5 17.1013C17.5 17.1013 17.5 17.1013 17.5 17.1013C17.5 17.1013 17.5 17.1013 17.5 17.1013V17.1014V17.1014C17.5 17.1014 17.5 17.1014 17.5 17.1014C17.5 17.1014 17.5 17.1014 17.5 17.1014V17.1014V17.1014C17.5 17.1014 17.5 17.1014 17.5 17.1014C17.5 17.1014 17.5 17.1014 17.5 17.1014C17.5 17.1014 17.5 17.1014 17.5 17.1014V17.1014C17.5 17.1014 17.5 17.1014 17.5 17.1014C17.5 17.1014 17.5 17.1014 17.5 17.1014C17.5 17.1014 17.5 17.1014 17.5 17.1014V17.1014C17.5 17.1014 17.5 17.1014 17.5 17.1014C17.5 17.1014 17.5 17.1014 17.5 17.1014C17.5 17.1014 17.5 17.1014 17.5 17.1014V17.1014C17.5 17.1014 17.5 17.1014 17.5 17.1014C17.5 17.1014 17.5 17.1014 17.5 17.1014C17.5 17.1014 17.5 17.1014 17.5 17.1014V17.1014C17.5 17.1014 17.5 17.1014 17.5 17.1014C17.5 17.1014 17.5 17.1014 17.5 17.1014C17.5 17.1014 17.5 17.1014 17.5 17.1014V17.1014V17.1014C17.5 17.1014 17.5 17.1014 17.5 17.1014C17.5 17.1014 17.5 17.1014 17.5 17.1014V17.1014V17.1014C17.5 17.1014 17.5 17.1014 17.5 17.1014C17.5 17.1014 17.5 17.1014 17.5 17.1014V17.1014V17.1014C17.5 17.1014 17.5 17.1014 17.5 17.1014C17.5 17.1014 17.5 17.1014 17.5 17.1014V17.1014V17.1014C17.5 17.1014 17.5 17.1014 17.5 17.1014C17.5 17.1014 17.5 17.1014 17.5 17.1014V17.1014V17.1014C17.5 17.1014 17.5 17.1014 17.5 17.1014C17.5 17.1014 17.5 17.1014 17.5 17.1014V17.1014V17.1014C17.5 17.1014 17.5 17.1014 17.5 17.1014C17.5 17.1014 17.5 17.1014 17.5 17.1014V17.1014V17.1014C17.5 17.1014 17.5 17.1014 17.5 17.1014C17.5 17.1014 17.5 17.1014 17.5 17.1014V17.1015V17.1015C17.5 17.1015 17.5 17.1015 17.5 17.1015C17.5 17.1015 17.5 17.1015 17.5 17.1015V17.1015V17.1015C17.5 17.1015 17.5 17.1015 17.5 17.1015C17.5 17.1015 17.5 17.1015 17.5 17.1015V17.1015V17.1015C17.5 17.1015 17.5 17.1015 17.5 17.1015C17.5 17.1015 17.5 17.1015 17.5 17.1015C17.5 17.1015 17.5 17.1015 17.5 17.1015V17.1015C17.5 17.1015 17.5 17.1015 17.5 17.1015C17.5 17.1015 17.5 17.1015 17.5 17.1015C17.5 17.1015 17.5 17.1015 17.5 17.1015V17.1015C17.5 17.1015 17.5 17.1015 17.5 17.1015C17.5 17.1015 17.5 17.1015 17.5 17.1015C17.5 17.1015 17.5 17.1015 17.5 17.1015V17.1015C17.5 17.1015 17.5 17.1015 17.5 17.1015C17.5 17.1015 17.5 17.1015 17.5 17.1015C17.5 17.1015 17.5 17.1015 17.5 17.1015V17.1015C17.5 17.1015 17.5 17.1015 17.5 17.1015C17.5 17.1015 17.5 17.1015 17.5 17.1015C17.5 17.1015 17.5 17.1015 17.5 17.1015V17.1015V17.1015C17.5 17.1015 17.5 17.1015 17.5 17.1015C17.5 17.1015 17.5 17.1015 17.5 17.1015V17.1015V17.1015C17.5 17.1015 17.5 17.1015 17.5 17.1015C17.5 17.1015 17.5 17.1015 17.5 17.1015C17.5 17.1015 17.5 17.1015 17.5 17.1015V17.1015C17.5 17.1015 17.5 17.1015 17.5 17.1015C17.5 17.1015 17.5 17.1015 17.5 17.1015C17.5 17.1015 17.5 17.1015 17.5 17.1015V17.1015V17.1015C17.5 17.1015 17.5 17.1015 17.5 17.1015C17.5 17.1015 17.5 17.1015 17.5 17.1015C17.5 17.1015 17.5 17.1015 17.5 17.1015V17.1015C17.5 17.1015 17.5 17.1015 17.5 17.1015C17.5 17.1015 17.5 17.1015 17.5 17.1015C17.5 17.1015 17.5 17.1015 17.5 17.1015V17.1015V17.1016C17.5 17.1016 17.5 17.1016 17.5 17.1016C17.5 17.1016 17.5 17.1016 17.5 17.1016C17.5 17.1016 17.5 17.1016 17.5 17.1016V17.1016C17.5 17.1016 17.5 17.1016 17.5 17.1016C17.5 17.1016 17.5 17.1016 17.5 17.1016H20.5ZM19 18.6016H19.0001V15.6016H19V18.6016ZM17.5001 17.1016V18.3682H20.5001V17.1016H17.5001ZM19.0001 16.8682H19V19.8682H19.0001V16.8682ZM15.8333 23.6667C17.317 23.6667 18.5016 22.8066 19.2525 21.8485C20.008 20.8847 20.4994 19.616 20.5 18.369L17.5 18.3675C17.4998 18.8691 17.282 19.4995 16.8914 19.9978C16.4964 20.5018 16.098 20.6667 15.8333 20.6667V23.6667ZM3.16667 23.6667H15.8333V20.6667H3.16667V23.6667Z" fill="#EA0319" mask="url(#path-1-inside-1)"/>
</svg>
