<svg width="12" height="14" viewBox="0 0 12 14" fill="none" xmlns="http://www.w3.org/2000/svg">
<path d="M4.3139 2.80528C4.38607 2.7051 4.43103 2.58666 4.44407 2.4623C4.45712 2.33795 4.43777 2.21224 4.38806 2.09829L4.3139 2.80528ZM4.3139 2.80528C4.21921 2.9379 4.12242 3.06871 4.02557 3.19961C3.93856 3.31721 3.8515 3.43488 3.76584 3.55402L4.3139 2.80528ZM9.39727 8.62559L9.67388 9.04211C9.70972 9.01831 9.74945 9.00629 9.78874 9.00549C9.82802 9.00469 9.86794 9.01507 9.90431 9.03718L9.91943 9.04638L9.93517 9.05448C10.5513 9.37171 11.0571 9.88692 11.3755 10.5281L11.3809 10.539L11.3869 10.5497C11.4409 10.6464 11.4661 10.7596 11.4574 10.8737C11.4486 10.9879 11.4067 11.0946 11.3397 11.1799L11.3346 11.1863L11.3297 11.1929C10.7052 12.0437 9.95191 12.5215 8.96561 12.5462C8.85472 12.5442 8.74399 12.5366 8.63379 12.5234C7.85965 12.4056 7.12245 12.0972 6.48397 11.6224L6.484 11.6224L6.4785 11.6184C5.69172 11.0497 4.9686 10.3908 4.32288 9.65395L4.32292 9.65392L4.31818 9.64866C4.22697 9.54751 4.13595 9.44689 4.04524 9.34663C3.3094 8.53324 2.59424 7.74272 1.96537 6.8714C1.40566 6.07974 0.932426 5.28669 0.676587 4.39337L0.676733 4.39332L0.673051 4.38157C0.502026 3.83558 0.45689 3.25503 0.541555 2.68711C0.646249 2.05212 0.969997 1.52175 1.44681 1.05579C1.64268 0.874562 1.85497 0.713973 2.08056 0.57622L2.08794 0.571708L2.09517 0.566943C2.16448 0.521252 2.24324 0.498741 2.32191 0.500054C2.40059 0.501368 2.47883 0.526512 2.54697 0.574699L2.55969 0.583689L2.57294 0.59187C3.18884 0.972205 3.66471 1.56216 3.91739 2.26702L3.92306 2.28283L3.92977 2.29822C3.94471 2.33245 3.95088 2.37126 3.9468 2.41014L3.9468 2.41014C3.94272 2.44899 3.92879 2.48445 3.90821 2.51301L3.90698 2.51474C3.81988 2.63672 3.73048 2.75779 3.63838 2.88228L3.62311 2.90292C3.53656 3.0199 3.4476 3.14012 3.35988 3.26213L3.35924 3.26302C3.32994 3.30396 3.29926 3.3463 3.2677 3.38986C3.14096 3.5648 2.99998 3.75937 2.87679 3.96171C2.75093 4.15139 2.68555 4.37478 2.68751 4.60161C2.68949 4.8321 2.76093 5.05788 2.8942 5.24724C2.97456 5.3643 3.05579 5.48437 3.13817 5.60614C3.41113 6.00963 3.69675 6.43182 4.00536 6.82547C4.7282 7.75393 5.52873 8.61464 6.39772 9.39753L6.39948 9.3991C6.57828 9.55867 6.76894 9.70262 6.94114 9.83264C6.96696 9.85214 6.99237 9.87132 7.01726 9.89019C7.17692 10.0169 7.36992 10.0956 7.5743 10.1149C7.7795 10.1342 7.98486 10.0924 8.16602 9.99602C8.39601 9.8782 8.61983 9.74803 8.83658 9.60606L8.83875 9.60463C8.97475 9.51453 9.13454 9.40623 9.29038 9.30061C9.42769 9.20755 9.56194 9.11656 9.67416 9.04192L9.39727 8.62559ZM9.39727 8.62559C9.26575 8.71307 9.13422 8.80231 9.00216 8.89192C8.85654 8.99073 8.71027 9.08998 8.56261 9.1878L8.96737 13.0463C10.149 13.0202 11.0377 12.4358 11.7328 11.4888C11.8619 11.3245 11.9398 11.1232 11.9559 10.9119C11.9721 10.7005 11.9258 10.4891 11.8233 10.3057C11.4586 9.5713 10.8772 8.97714 10.164 8.60994C10.0473 8.53895 9.91385 8.50283 9.77853 8.5056C9.64322 8.50836 9.51127 8.54989 9.39727 8.62559Z" fill="#2E2C44" stroke="#2E2C44"/>
</svg>
