<svg width="319" height="319" viewBox="0 0 319 319" fill="none" xmlns="http://www.w3.org/2000/svg">
<path fill-rule="evenodd" clip-rule="evenodd" d="M116.891 138.127C116.891 146.618 127.661 150.333 132.914 151.129C131.601 152.987 126.347 156.702 114.527 156.702C102.706 156.702 92.4616 151.395 88.7841 148.741L96.4018 147.149C95.6138 146.884 92.9869 146.618 87.4707 145.557C81.9544 144.496 76.7009 140.781 74.5994 139.189L87.4707 137.066C86.6826 136.8 83.5305 136.27 77.4889 134.943C71.4473 133.616 66.4564 129.901 64.6177 128.044L82.2171 125.125C79.5903 124.86 73.2861 124.594 68.5579 123.533C63.8296 122.472 58.8388 118.226 57 116.368H107.434C115.315 116.368 116.891 121.941 116.628 124.86V138.127H116.891ZM180.984 110C189.39 113.715 206.202 126.717 206.99 148.476C208.303 148.741 208.303 150.599 208.303 153.783C208.303 156.967 205.413 155.375 202.261 155.906C199.109 156.436 160.233 163.601 158.131 164.928C156.03 166.254 156.555 172.623 149.726 180.318C144.209 186.421 138.168 188.278 135.804 188.278L137.38 191.197C137.642 191.728 138.693 193.055 140.269 195.178C141.845 197.566 143.947 200.485 144.735 201.546C144.209 203.403 140.795 208.445 130.025 215.344C119.255 222.243 104.807 228.612 99.2912 231C101.918 226.224 107.96 216.14 110.849 215.344C113.739 214.283 116.365 216.936 117.153 218.263C117.153 217.998 117.679 216.406 119.255 212.16C120.831 207.914 125.559 203.403 127.661 201.546L119.255 196.77C116.103 199.158 107.434 203.404 99.2912 200.75C90.8855 198.097 69.3459 180.318 59.6268 171.561C60.1521 171.296 61.9909 171.296 65.9311 171.561C71.1846 172.092 74.3368 172.357 78.0143 175.276C80.9038 177.664 80.3784 180.849 79.5903 182.175H91.6736C97.4525 182.175 100.342 185.625 100.867 187.482C100.342 184.298 100.079 176.868 103.757 173.419C108.222 168.908 112.951 169.439 122.144 170.5C131.338 171.827 135.016 165.724 137.642 158.294C139.744 152.722 142.896 150.599 145.785 150.068C139.744 149.272 132.651 142.108 134.49 132.29C136.592 121.676 146.048 116.634 156.293 116.634C164.698 116.634 168.901 117.961 169.689 118.757C169.427 118.757 168.113 119.287 166.537 120.879C164.961 122.472 163.648 124.329 163.385 125.125H164.436H167.588C166.8 125.921 165.224 127.513 164.436 129.371C163.385 131.493 163.385 133.616 164.436 141.046C164.961 145.557 163.385 149.007 162.334 150.599C173.104 150.864 187.551 151.395 196.482 151.925C197.008 151.129 198.321 149.803 198.847 149.537C199.109 146.884 198.847 139.985 195.694 131.759C192.28 123.268 184.662 116.368 181.247 113.98V110H180.984ZM238.511 149.537H212.506V154.048H240.087C241.926 155.375 245.078 156.171 248.493 156.171C254.272 156.171 259 153.783 259 150.864C259 147.945 254.272 145.557 248.493 145.557C243.765 145.822 239.824 147.415 238.511 149.537ZM198.058 164.132C197.533 166.785 196.745 169.969 195.432 173.154C192.017 181.645 184.399 188.544 180.984 190.932V194.116C188.339 190.667 202.261 180.318 205.939 163.07L198.058 164.132Z" fill="white"/>
<path d="M61.2169 53.2985L59.899 54.6178L52.2551 52.7709L54.1002 60.4226L52.7823 61.7419L50.6736 52.507L42.239 50.66L43.5569 49.3408L50.4101 50.9239L48.8285 44.0637L50.1465 42.7444L51.9916 51.1877L61.2169 53.2985ZM45.402 70.9768L44.3476 72.2961L31.9593 63.3251L33.0136 62.0058L45.402 70.9768ZM36.9674 79.9479L38.5489 77.8371C39.3396 76.7816 39.6032 75.9901 39.6032 75.1985C39.6032 74.407 39.076 73.8792 38.2853 73.0876C37.4945 72.5599 36.7038 72.2961 36.1766 72.56C35.3859 72.8238 34.5951 73.6154 33.8043 74.6708L32.4864 76.5178L36.9674 79.9479ZM37.231 82.3225L24.8426 73.3515L25.8969 72.0322L31.1685 75.7262L32.75 73.6154C33.8044 72.0322 34.8587 71.2407 35.913 70.9768C36.9674 70.713 38.2853 70.9768 39.3396 71.7684C40.3939 72.5599 41.1847 73.6154 41.1847 74.6708C41.1847 75.7262 40.9211 77.0455 39.8668 78.6286L37.231 82.3225ZM30.6414 94.196L29.8506 95.7791L17.4623 89.9744L15.3536 94.4599L17.4623 95.7791C20.3617 97.6261 22.2068 98.9454 23.5247 99.7369C24.8426 100.792 25.6333 101.584 25.8969 102.112C26.1605 102.903 26.1605 103.695 25.8969 104.486C25.6333 105.014 25.3698 105.278 25.1062 105.542L23.7883 105.014C24.0518 104.75 24.3154 104.486 24.579 103.959C24.8426 103.695 24.8426 103.167 24.579 102.903C24.3154 102.639 24.0518 102.112 23.5247 101.584C22.9975 101.056 21.6796 100.265 20.0981 98.9454C18.2531 97.89 16.1444 96.3069 13.5086 94.7237L16.9351 87.3358L30.6414 94.196ZM7.44616 115.304C6.91899 116.887 7.18261 118.207 7.97335 119.526C8.7641 120.845 10.082 121.637 11.9271 122.165C13.7722 122.692 15.3536 122.692 16.6715 122.165C17.9894 121.637 18.7802 120.581 19.3073 118.734C19.5709 117.679 19.8345 116.624 19.8345 115.041L21.416 115.568C21.416 116.624 21.416 117.943 20.8888 119.526C20.3617 121.637 19.0438 123.22 17.4623 124.012C15.8808 124.803 13.7721 124.803 11.3999 124.012C9.81839 123.484 8.76408 122.956 7.70975 121.901C6.65543 121.109 6.12831 120.054 5.86473 118.734C5.60115 117.415 5.60108 116.096 6.12825 114.777C6.65541 113.194 7.18262 111.874 8.23695 111.083L9.55486 112.138C8.50053 113.194 7.70974 114.249 7.44616 115.304ZM7.70975 149.342C9.81841 149.605 11.3999 149.342 12.4543 148.55C13.5086 147.758 14.2993 146.439 14.2993 144.856C14.5629 143.273 14.0357 141.954 12.9814 140.898C11.9271 139.843 10.6092 139.315 8.50055 139.051C6.39189 138.787 4.81035 139.051 3.75602 139.843C2.7017 140.634 1.911 141.69 1.911 143.537C1.64742 145.12 2.17458 146.439 3.22891 147.495C4.01965 148.55 5.6011 149.342 7.70975 149.342ZM8.76406 137.468C11.1363 137.732 12.9814 138.524 14.2993 139.843C15.6172 141.162 16.1444 143.009 15.8808 145.12C15.6172 147.231 14.8265 149.078 13.245 150.133C11.6635 151.189 9.81846 151.716 7.18264 151.452C4.8104 151.189 2.96531 150.397 1.6474 149.078C0.329492 147.758 -0.197688 145.911 0.0658943 143.801C0.329476 141.69 1.12022 140.107 2.70171 138.787C4.54679 137.468 6.39183 137.204 8.76406 137.468ZM7.97335 172.033V170.45C7.97335 168.867 7.7098 167.811 7.18264 167.02C6.65547 166.228 5.86466 165.964 4.81034 165.964C3.75601 165.964 2.9653 166.492 2.70171 167.02C2.17455 167.811 1.91094 168.867 2.17452 170.186V172.033H7.97335ZM4.28322 164.381C5.86471 164.381 6.91902 164.909 7.97335 165.701C8.7641 166.756 9.29126 168.075 9.29126 170.186V172.033L15.3536 171.769V173.616L0.329492 174.408L0.0658943 170.45C0.0658943 166.492 1.38382 164.645 4.28322 164.381ZM5.86473 188.92C6.91906 188.656 7.7098 188.92 8.50055 189.184C9.29129 189.711 9.81841 190.503 10.3456 191.558C10.082 190.239 10.3456 189.184 10.8728 188.392C11.3999 187.6 11.9271 187.073 12.9814 186.809C14.2993 186.545 15.6172 186.809 16.6715 187.601C17.7258 188.392 18.5166 189.711 18.7802 191.558C19.3074 193.141 19.3074 194.725 19.0438 196.044L17.4623 196.308C17.7259 195.516 17.7259 194.725 17.7259 193.933C17.7259 193.141 17.7259 192.35 17.4623 191.822C17.1987 190.503 16.6716 189.447 15.8808 188.92C15.0901 188.392 14.2993 188.128 13.5086 188.392C12.7178 188.656 11.9271 189.184 11.6635 189.975C11.3999 190.767 11.3999 192.086 11.9271 193.405L12.4543 195.516L11.1364 195.78L10.6092 193.669C10.3456 192.35 9.81841 191.294 9.02766 190.767C8.23692 190.239 7.44619 189.975 6.65544 190.239C5.8647 190.503 5.33752 190.767 5.07393 191.558C4.81035 192.086 4.81035 192.878 5.07393 193.933C5.33752 194.725 5.60115 195.252 5.86473 195.78C6.12831 196.308 6.65541 196.835 7.44616 197.627L6.39184 198.682C5.6011 198.155 5.07392 197.363 4.81034 196.572C4.28317 195.78 4.01961 194.988 3.75602 193.933C3.49244 192.35 3.49244 191.031 3.75602 190.239C4.01961 189.975 4.8104 189.184 5.86473 188.92ZM19.3073 217.944L24.579 215.833L23.2611 212.93C22.7339 211.875 22.2068 211.084 21.6796 210.556C20.8889 210.292 20.0981 210.028 19.3073 210.556C18.5166 210.82 17.9895 211.347 17.7259 212.139C17.4623 212.931 17.7259 213.986 18.253 215.041L19.3073 217.944ZM17.9894 218.471L16.9351 215.833C16.408 214.777 15.8808 213.986 15.3536 213.458C14.8264 213.194 14.0357 213.194 13.245 213.458C12.4542 213.722 11.9271 214.25 11.9271 215.041C11.9271 215.833 11.9271 216.625 12.4543 217.944L13.5086 220.318L17.9894 218.471ZM12.7178 222.429L11.1364 218.471C10.3456 216.624 10.082 215.041 10.3456 213.986C10.6092 212.931 11.1364 212.139 12.4543 211.611C13.245 211.347 14.0358 211.084 14.8265 211.347C15.6172 211.611 16.1444 212.139 16.6715 212.93C16.1444 210.556 16.9352 209.237 18.7802 208.445C20.0981 207.917 21.1524 207.917 22.2068 208.445C23.2611 208.973 24.0518 210.028 24.8426 211.611L26.9513 216.625L12.7178 222.429ZM29.3235 249.606L30.6414 251.453C31.4322 252.509 32.2229 253.036 33.0136 253.3C33.8044 253.564 34.5951 253.3 35.3859 252.773C36.9673 251.453 36.9673 249.87 35.3859 247.759L34.0679 245.912L29.3235 249.606ZM36.9674 247.495L44.3476 246.968L45.6655 248.551L37.7581 249.079C38.0217 250.134 38.2853 251.189 38.0217 251.981C37.7581 252.773 37.231 253.564 36.1766 254.092C35.1223 254.883 34.0679 255.147 32.75 254.883C31.6957 254.62 30.3778 253.564 29.3235 252.245L26.9513 248.815L39.076 239.58L40.1304 240.899L35.1223 244.593L36.9674 247.495ZM53.3095 257.786L54.6274 259.105L45.1384 268.868L48.5649 272.298L50.4101 270.715C53.0459 268.604 54.8909 267.285 56.2088 266.229C57.5267 265.438 58.5811 264.91 59.3718 264.91C60.1626 264.91 60.9533 265.174 61.4804 265.701C61.744 265.965 62.0077 266.493 62.2712 266.757L61.2169 267.812C60.9533 267.548 60.9533 267.021 60.6897 266.757C60.4261 266.493 60.1626 266.493 59.6354 266.493C59.1083 266.493 58.5811 266.757 58.0539 267.021C57.2632 267.284 56.2089 268.34 54.6274 269.395C53.0459 270.715 50.9372 272.298 48.5649 274.145L42.7662 268.34L53.3095 257.786ZM72.0237 276.783L64.9071 286.546L67.8065 288.657C68.8608 287.337 70.4422 286.018 72.2873 284.435C74.1324 282.852 75.9775 281.797 77.8226 281.005L72.0237 276.783ZM72.2873 270.187L73.6052 271.242L71.233 274.409L79.6677 280.477L82.0399 277.311L83.3578 278.366L80.1948 282.852L79.1405 282.06C77.2954 282.852 75.1868 284.171 73.0781 285.754C70.9695 287.337 69.1244 288.921 67.8065 290.768L62.2712 286.81L70.1787 275.728L68.5972 274.672L72.2873 270.187ZM107.344 302.113L109.452 296.836L106.553 295.517C105.499 294.989 104.444 294.989 103.654 295.253C102.863 295.517 102.336 296.045 102.072 296.836C101.809 297.628 101.809 298.419 102.072 299.211C102.599 299.739 103.39 300.53 104.444 300.794L107.344 302.113ZM106.817 303.696L104.181 302.641C103.126 302.113 102.072 302.113 101.545 302.113C101.018 302.377 100.491 302.905 99.9634 303.696C99.6998 304.488 99.6998 305.28 100.227 305.807C100.754 306.335 101.545 306.863 102.599 307.39L104.971 308.446L106.817 303.696ZM106.026 310.293L102.072 308.71C100.227 307.918 98.9091 307.127 98.3819 306.335C97.8547 305.543 97.5912 304.488 98.1184 303.169C98.382 302.377 98.9091 301.849 99.6998 301.322C100.491 301.058 101.281 300.794 102.072 301.058C99.9635 299.739 99.4363 298.155 100.227 296.309C100.754 294.989 101.545 294.198 102.599 293.934C103.654 293.67 104.971 293.67 106.553 294.198L111.561 296.309L106.026 310.293ZM134.229 309.765C134.756 307.654 134.493 306.071 133.965 305.016C133.438 303.696 132.12 302.905 130.539 302.641C128.957 302.377 127.64 302.641 126.585 303.433C125.531 304.224 124.74 305.807 124.477 307.654C124.213 309.765 124.213 311.348 124.74 312.404C125.267 313.723 126.585 314.251 128.167 314.778C129.748 315.042 131.066 314.778 132.12 313.987C133.175 313.195 133.965 311.876 134.229 309.765ZM122.368 307.39C122.895 305.016 123.686 303.169 125.267 302.113C126.849 301.058 128.43 300.53 130.803 301.058C132.911 301.586 134.493 302.377 135.547 303.96C136.601 305.543 136.601 307.654 136.338 310.029C135.811 312.404 135.02 314.251 133.438 315.306C131.857 316.361 130.275 316.625 127.903 316.361C125.794 315.834 124.213 315.042 123.422 313.459C122.104 311.876 122.104 309.765 122.368 307.39ZM156.634 311.876H155.052C153.471 311.876 152.416 311.876 151.625 312.404C150.835 312.931 150.571 313.723 150.571 314.778C150.571 315.834 150.835 316.625 151.362 317.153C151.889 317.681 152.943 317.945 154.525 317.945H156.37L156.634 311.876ZM148.726 314.514C148.726 312.931 149.517 311.876 150.571 311.084C151.625 310.293 153.207 310.029 155.052 310.029H156.897L157.161 303.96H159.006L158.215 319L154.261 318.736C150.308 319.264 148.462 317.681 148.726 314.514ZM175.611 310.029L177.984 314.514C178.247 315.042 178.511 315.834 179.038 316.625C179.038 315.834 179.302 315.306 179.302 314.251L180.356 309.237L175.611 310.029ZM172.185 303.96L174.821 308.446L180.883 307.654L181.937 302.641L183.783 302.377L180.092 318.208L178.511 318.472L170.34 304.224L172.185 303.96ZM204.342 304.488L202.76 298.947L199.597 299.739C198.543 300.003 197.489 300.53 197.225 301.322C196.698 301.849 196.698 302.641 196.962 303.696C197.225 304.488 197.752 305.28 198.543 305.543C199.334 305.807 200.388 305.807 201.442 305.28L204.342 304.488ZM204.869 306.071L201.97 306.863C200.652 307.127 199.861 307.654 199.597 308.182C199.07 308.71 199.07 309.501 199.334 310.293C199.597 311.084 200.125 311.612 200.652 311.876C201.442 312.14 202.233 311.876 203.551 311.612L205.923 310.82L204.869 306.071ZM208.559 311.612L204.342 312.931C202.497 313.459 200.915 313.723 199.861 313.195C198.807 312.931 198.016 312.14 197.752 310.82C197.489 310.029 197.489 309.237 197.752 308.446C198.016 307.654 198.543 307.127 199.597 306.599C197.225 306.863 195.907 306.071 195.117 304.224C194.853 302.905 194.853 301.849 195.644 300.794C196.434 299.739 197.489 298.947 199.07 298.683L204.078 297.1L208.559 311.612ZM230.436 294.462C229.646 292.615 228.591 291.295 227.274 290.768C225.956 290.24 224.638 290.24 223.056 291.031C221.475 291.823 220.684 292.878 220.157 294.198C219.893 295.517 220.157 297.1 220.947 298.947C221.738 300.794 222.793 302.113 224.111 302.641C225.428 303.169 226.746 303.169 228.328 302.377C229.909 301.586 230.7 300.53 231.227 299.211C231.491 297.892 231.227 296.309 230.436 294.462ZM219.366 299.475C218.312 297.364 218.048 295.253 218.575 293.406C219.102 291.559 220.42 290.24 222.265 289.448C224.374 288.393 226.219 288.393 227.801 289.184C229.382 289.976 230.964 291.295 232.018 293.67C233.072 295.781 233.336 297.892 232.809 299.739C232.282 301.586 230.964 302.905 229.119 303.696C227.273 304.752 225.428 304.752 223.583 303.96C221.738 303.169 220.42 301.849 219.366 299.475ZM241.507 278.366L243.088 277.311L250.732 288.657L254.686 286.018L255.477 287.337L245.988 293.67L245.197 292.351L249.151 289.712L241.507 278.366ZM264.966 258.313L266.02 256.994L271.292 261.744L276.563 255.675L271.292 250.926L272.346 249.606L283.68 259.633L282.626 260.952L277.881 256.73L272.61 262.799L277.354 267.021L276.3 268.34L264.966 258.313ZM299.495 235.886L298.704 237.205L291.324 232.983C290.006 232.192 288.688 231.4 287.634 230.609L294.223 244.329L293.169 245.912L279.99 238.261L280.781 236.941L287.897 241.163C289.215 241.954 290.27 242.746 291.587 243.538L284.998 229.817L286.052 228.234L299.495 235.886ZM302.921 221.11C302.131 220.846 301.34 220.055 301.076 219.263C300.813 218.471 300.813 217.416 301.076 216.361C300.549 217.416 299.758 218.208 298.968 218.471C298.177 218.735 297.386 218.735 296.332 218.471C295.014 217.944 294.223 217.152 293.96 215.833C293.696 214.514 293.696 212.931 294.487 211.347C295.278 209.764 296.068 208.445 296.859 207.653L298.441 208.181C297.913 208.709 297.386 209.237 296.859 210.028C296.332 210.556 296.068 211.347 295.805 211.875C295.278 213.194 295.014 214.25 295.278 215.041C295.541 215.833 296.068 216.624 296.859 216.888C297.65 217.152 298.441 217.152 299.231 216.625C300.022 216.097 300.549 215.041 301.076 213.722L301.867 211.611L303.185 212.139L302.394 214.25C301.867 215.569 301.604 216.624 301.867 217.68C302.131 218.471 302.658 219.263 303.449 219.527C304.239 219.791 304.767 219.791 305.294 219.527C305.821 219.263 306.348 218.471 306.875 217.68C307.139 216.888 307.402 216.361 307.402 215.569C307.402 215.041 307.402 214.25 307.139 213.194L308.457 212.93C308.72 213.722 308.72 214.777 308.72 215.569C308.72 216.361 308.457 217.416 308.193 218.208C307.666 219.527 306.875 220.582 305.821 221.11C304.767 221.374 303.976 221.374 302.921 221.11ZM306.085 194.988L311.093 194.461C311.62 194.461 312.41 194.197 313.465 194.197C312.938 193.933 312.147 193.405 311.62 193.141L307.402 190.239L306.085 194.988ZM299.231 195.78L304.239 194.988L305.821 189.184L301.604 186.281L302.131 184.434L315.573 193.933L315.31 195.252L298.968 197.363L299.231 195.78ZM318.209 176.782H316.628L316.891 170.186L303.449 169.395V167.548L318.473 168.339L318.209 176.782ZM310.038 151.189L314.519 149.078C315.046 148.814 315.837 148.55 316.628 148.286C315.837 148.286 315.31 148.022 314.519 147.758L309.775 146.439L310.038 151.189ZM303.976 154.091L308.72 151.716L308.193 145.648L303.185 144.328L302.921 142.481L318.736 146.967L319 148.55L304.503 155.938L303.976 154.091ZM298.968 123.22L310.829 115.041C309.775 115.304 308.72 115.832 307.139 116.096L297.65 118.471L297.386 116.887L312.147 113.194L312.674 115.832L301.604 123.484L314.783 125.331L315.31 127.969L300.549 131.663L300.022 130.08L309.511 127.706C310.565 127.442 311.883 127.178 313.201 126.914L298.968 125.067V123.22ZM297.123 102.375L298.704 101.848L300.549 106.597L298.968 107.125L297.123 102.375ZM287.897 93.6683L287.107 92.0852L298.968 85.7527L296.596 81.531L297.913 80.7395L303.185 90.7659L301.867 91.5574L299.495 87.3358L287.897 93.6683ZM278.936 78.6286L273.927 71.7684L286.052 62.5335L291.06 69.3937L289.742 70.4491L285.789 65.172L281.835 68.0744L285.525 73.0876L284.207 74.1431L280.517 69.1298L276.036 72.56L279.99 77.8371L278.936 78.6286ZM265.493 61.4781L264.175 60.1588L269.183 55.1456L263.384 49.6046L258.376 54.6178L257.058 53.2985L267.602 42.4805L268.919 43.7998L264.439 48.2853L270.237 53.8263L274.718 49.3408L276.036 50.66L265.493 61.4781ZM245.724 34.5649L247.042 35.6203C248.36 36.4119 249.414 36.9396 250.205 36.9396C250.996 36.9396 251.787 36.4119 252.577 35.6203C253.104 34.8288 253.368 34.0372 253.105 33.2456C252.841 32.4541 252.05 31.6625 250.996 30.871L249.414 29.8155L245.724 34.5649ZM253.895 36.4119C253.104 37.7312 251.787 38.2589 250.469 38.2589C249.151 38.2589 247.569 37.7312 245.988 36.6758L244.67 35.6203L241.243 40.3697L239.925 39.3143L248.887 26.9131L252.05 29.2878C254.95 31.9264 255.74 34.0372 253.895 36.4119ZM228.855 32.7179L221.475 28.7601L228.591 15.3035L235.972 19.2613L235.181 20.5806L229.382 17.4144L227.01 21.6361L232.545 24.5384L231.754 25.8577L226.219 22.9553L223.583 27.9685L229.382 31.1348L228.855 32.7179ZM206.187 22.9553L204.605 22.4276L209.086 9.49874L204.605 7.91563L205.133 6.33249L215.939 10.0264L215.412 11.6096L210.931 10.0264L206.187 22.9553ZM188.791 17.9421L186.945 17.6782L188 10.5542L180.092 9.49874L179.038 16.6228L177.193 16.359L179.302 1.31927L181.147 1.5831L180.092 7.91563L188 8.97104L189.054 2.63854L190.899 2.90237L188.791 17.9421ZM117.36 16.359C116.569 16.8867 115.515 16.6228 114.988 15.8313C114.46 15.0397 114.724 13.9843 115.515 13.4566C116.305 12.9288 117.36 13.1927 117.887 13.9843C118.414 14.7758 118.151 15.8313 117.36 16.359ZM86.5207 29.2878C85.73 29.8155 84.6757 29.5517 84.1485 28.7601C83.6213 27.9686 83.8849 26.9132 84.6757 26.3854C85.4664 25.8577 86.5208 26.1216 87.0479 26.9131C87.5751 27.4409 87.3115 28.7601 86.5207 29.2878ZM151.889 0H153.471V8.44333C153.471 10.0265 153.471 11.3457 153.207 12.665L161.642 0H163.487V15.3035H161.905V6.86019C161.905 5.54092 161.905 3.9578 162.169 2.37467L153.734 15.0397H151.889V0Z" fill="white"/>
<path fill-rule="evenodd" clip-rule="evenodd" d="M238 127.917C238 133.417 241.75 136.9 243.437 138C243.25 137.817 242.875 136.717 243.812 133.783C244.75 130.667 247.375 126.267 248.5 124.433C249.625 126.267 252.25 130.667 253.187 133.783C254.125 136.9 253.938 137.817 253.563 138C255.438 136.9 259 133.417 259 127.917C259 122.417 251.875 110.317 248.313 105C245.125 110.317 238 122.233 238 127.917Z" fill="#E4062B"/>
</svg>
