<svg width="14" height="13" viewBox="0 0 14 13" fill="none" xmlns="http://www.w3.org/2000/svg">
<path d="M6.94994 0.908492C7.13334 0.536869 7.66327 0.53687 7.84667 0.908493L9.45628 4.16991C9.52911 4.31748 9.66989 4.41976 9.83275 4.44343L13.4319 4.96642C13.842 5.02601 14.0058 5.53 13.709 5.81927L11.1046 8.35792C10.9868 8.47279 10.933 8.63829 10.9608 8.80049L11.5757 12.3851C11.6457 12.7936 11.217 13.1051 10.8502 12.9122L7.63098 11.2198C7.48531 11.1432 7.3113 11.1432 7.16563 11.2198L3.94643 12.9122C3.57961 13.1051 3.1509 12.7936 3.22095 12.3851L3.83577 8.80049C3.86358 8.63829 3.80981 8.47279 3.69197 8.35792L1.08757 5.81927C0.790814 5.53 0.95457 5.02601 1.36468 4.96642L4.96386 4.44343C5.12672 4.41976 5.2675 4.31748 5.34033 4.16991L6.94994 0.908492Z" fill="#EA0319"/>
</svg>
