<svg width="18" height="18" viewBox="0 0 18 18" fill="none" xmlns="http://www.w3.org/2000/svg">
<path d="M2 7L2.74246 7.10607L2.75 7.0533V7H2ZM16 7H15.25V7.0533L15.2575 7.10607L16 7ZM16.8792 13.1546L16.1368 13.2606L16.1444 13.3139L16.1595 13.3655L16.8792 13.1546ZM1.12078 13.1546L1.84049 13.3655L1.85563 13.3139L1.86324 13.2606L1.12078 13.1546ZM5 3.25C2.92893 3.25 1.25 4.92893 1.25 7H2.75C2.75 5.75736 3.75736 4.75 5 4.75V3.25ZM13 3.25H5V4.75H13V3.25ZM16.75 7C16.75 4.92893 15.0711 3.25 13 3.25V4.75C14.2426 4.75 15.25 5.75736 15.25 7H16.75ZM17.6217 13.0485L16.7425 6.89393L15.2575 7.10607L16.1368 13.2606L17.6217 13.0485ZM16.1595 13.3655C16.2182 13.5659 16.25 13.7786 16.25 14H17.75C17.75 13.6343 17.6974 13.2795 17.5989 12.9436L16.1595 13.3655ZM16.25 14C16.25 15.2426 15.2426 16.25 14 16.25V17.75C16.0711 17.75 17.75 16.0711 17.75 14H16.25ZM4 17.75H14V16.25H4V17.75ZM0.25 14C0.25 16.0711 1.92893 17.75 4 17.75V16.25C2.75736 16.25 1.75 15.2426 1.75 14H0.25ZM0.401067 12.9436C0.302576 13.2795 0.25 13.6343 0.25 14H1.75C1.75 13.7786 1.78176 13.5659 1.84049 13.3655L0.401067 12.9436ZM1.25754 6.89393L0.378315 13.0485L1.86324 13.2606L2.74246 7.10607L1.25754 6.89393Z" fill="white"/>
<path fill-rule="evenodd" clip-rule="evenodd" d="M11.5 4H13C13 1.79086 11.2091 0 9 0C6.79086 0 5 1.79086 5 4H6.5C6.5 2.61929 7.61929 1.5 9 1.5C10.3807 1.5 11.5 2.61929 11.5 4Z" fill="white"/>
<path d="M5 4.75C5 4.33579 5.33579 4 5.75 4C6.16421 4 6.5 4.33579 6.5 4.75V6.25C6.5 6.66421 6.16421 7 5.75 7C5.33579 7 5 6.66421 5 6.25V4.75Z" fill="white"/>
<path d="M11.5 4.75C11.5 4.33579 11.8358 4 12.25 4C12.6642 4 13 4.33579 13 4.75V6.25C13 6.66421 12.6642 7 12.25 7C11.8358 7 11.5 6.66421 11.5 6.25V4.75Z" fill="white"/>
</svg>
